<svg width="33" height="96" viewBox="0 0 33 96" fill="none" xmlns="http://www.w3.org/2000/svg">
<g clip-path="url(#clip0_207_2646)">
<g opacity="0.45">
<g filter="url(#filter0_iii_207_2646)">
<path d="M32.0907 1.18109V94.272H23.5907V10.0902H23.0453L1.22705 24.5901V15.772L23.2271 1.18109H32.0907Z" fill="#C4C4C4" fill-opacity="0.01"/>
</g>
<mask id="mask0_207_2646" style="mask-type:luminance" maskUnits="userSpaceOnUse" x="0" y="-1" width="34" height="97">
<g opacity="0.45">
<path d="M34 -0.728027H0V95.272H34V-0.728027Z" fill="white"/>
<path d="M32.0907 1.18109V94.272H23.5907V10.0902H23.0453L1.22705 24.5901V15.772L23.2271 1.18109H32.0907Z" fill="black"/>
</g>
</mask>
<g mask="url(#mask0_207_2646)">
<path d="M32.0907 1.18109H33.0907V0.181091H32.0907V1.18109ZM32.0907 94.272V95.272H33.0907V94.272H32.0907ZM23.5907 94.272H22.5907V95.272H23.5907V94.272ZM23.5907 10.0902H24.5907V9.09018H23.5907V10.0902ZM23.0453 10.0902V9.09018H22.7433L22.4918 9.25733L23.0453 10.0902ZM1.22705 24.5901H0.227051V26.4554L1.78055 25.423L1.22705 24.5901ZM1.22705 15.772L0.674339 14.9386L0.227051 15.2353V15.772H1.22705ZM23.2271 1.18109V0.181091H22.9256L22.6744 0.347718L23.2271 1.18109ZM31.0907 1.18109V94.272H33.0907V1.18109H31.0907ZM32.0907 93.272H23.5907V95.272H32.0907V93.272ZM24.5907 94.272V10.0902H22.5907V94.272H24.5907ZM23.5907 9.09018H23.0453V11.0901H23.5907V9.09018ZM22.4918 9.25733L0.673553 23.7573L1.78055 25.423L23.5988 10.923L22.4918 9.25733ZM2.22705 24.5901V15.772H0.227051V24.5901H2.22705ZM1.77976 16.6053L23.7798 2.01446L22.6744 0.347718L0.674339 14.9386L1.77976 16.6053ZM23.2271 2.18109H32.0907V0.181091H23.2271V2.18109Z" fill="url(#paint0_linear_207_2646)"/>
</g>
</g>
</g>
<defs>
<filter id="filter0_iii_207_2646" x="1.22705" y="1.18109" width="30.8638" height="109.049" filterUnits="userSpaceOnUse" color-interpolation-filters="sRGB">
<feFlood flood-opacity="0" result="BackgroundImageFix"/>
<feBlend mode="normal" in="SourceGraphic" in2="BackgroundImageFix" result="shape"/>
<feColorMatrix in="SourceAlpha" type="matrix" values="0 0 0 0 0 0 0 0 0 0 0 0 0 0 0 0 0 0 127 0" result="hardAlpha"/>
<feOffset dy="0.16284"/>
<feGaussianBlur stdDeviation="3.2568"/>
<feComposite in2="hardAlpha" operator="arithmetic" k2="-1" k3="1"/>
<feColorMatrix type="matrix" values="0 0 0 0 0.888917 0 0 0 0 0.870833 0 0 0 0 1 0 0 0 0.2 0"/>
<feBlend mode="normal" in2="shape" result="effect1_innerShadow_207_2646"/>
<feColorMatrix in="SourceAlpha" type="matrix" values="0 0 0 0 0 0 0 0 0 0 0 0 0 0 0 0 0 0 127 0" result="hardAlpha"/>
<feOffset dy="0.651361"/>
<feGaussianBlur stdDeviation="1.46556"/>
<feComposite in2="hardAlpha" operator="arithmetic" k2="-1" k3="1"/>
<feColorMatrix type="matrix" values="0 0 0 0 0.60543 0 0 0 0 0.574062 0 0 0 0 0.825 0 0 0 0.3 0"/>
<feBlend mode="normal" in2="effect1_innerShadow_207_2646" result="effect2_innerShadow_207_2646"/>
<feColorMatrix in="SourceAlpha" type="matrix" values="0 0 0 0 0 0 0 0 0 0 0 0 0 0 0 0 0 0 127 0" result="hardAlpha"/>
<feOffset dy="15.9583"/>
<feGaussianBlur stdDeviation="8.14201"/>
<feComposite in2="hardAlpha" operator="arithmetic" k2="-1" k3="1"/>
<feColorMatrix type="matrix" values="0 0 0 0 0.792093 0 0 0 0 0.675 0 0 0 0 1 0 0 0 0.3 0"/>
<feBlend mode="normal" in2="effect2_innerShadow_207_2646" result="effect3_innerShadow_207_2646"/>
</filter>
<linearGradient id="paint0_linear_207_2646" x1="63.4546" y1="126.643" x2="-12.5762" y2="122.655" gradientUnits="userSpaceOnUse">
<stop stop-color="#AB2FFE"/>
<stop offset="0.651937" stop-color="#336CFF"/>
<stop offset="0.96875" stop-color="#C01A56"/>
</linearGradient>
<clipPath id="clip0_207_2646">
<rect width="33" height="96" fill="white"/>
</clipPath>
</defs>
</svg>
