<svg width="61" height="97" viewBox="0 0 61 97" fill="none" xmlns="http://www.w3.org/2000/svg">
<g clip-path="url(#clip0_207_2655)">
<g opacity="0.45">
<g filter="url(#filter0_iii_207_2655)">
<path d="M1.36353 95.8159V89.5886L31.7726 55.4068C35.7423 50.922 38.9393 47.0886 41.3635 43.9068C43.7878 40.725 45.5454 37.7856 46.6363 35.0886C47.7575 32.3917 48.3181 29.5886 48.3181 26.6796C48.3181 23.1341 47.4848 20.0432 45.8181 17.4068C44.1817 14.7402 41.9241 12.6644 39.0454 11.1796C36.1666 9.69469 32.9241 8.95227 29.3181 8.95227C25.4999 8.95227 22.1514 9.77045 19.2726 11.4068C16.4241 13.0432 14.212 15.2856 12.6363 18.1341C11.0605 20.9826 10.2726 24.2553 10.2726 27.9523H2.13625C2.13625 22.8008 3.31807 18.2402 5.68171 14.2705C8.07565 10.2705 11.3332 7.13409 15.4544 4.86136C19.606 2.58863 24.3029 1.45227 29.5454 1.45227C34.7272 1.45227 39.3332 2.57348 43.3635 4.81591C47.3938 7.02803 50.5605 10.0432 52.8635 13.8614C55.1666 17.6796 56.3181 21.9523 56.3181 26.6796C56.3181 30.1038 55.712 33.422 54.4999 36.6341C53.3181 39.8462 51.2726 43.422 48.3635 47.3614C45.4544 51.3008 41.4241 56.1189 36.2726 61.8159L13.1817 87.5886V88.1796H59.2272V95.8159H1.36353Z" fill="#C4C4C4" fill-opacity="0.01"/>
</g>
<mask id="mask0_207_2655" style="mask-type:luminance" maskUnits="userSpaceOnUse" x="0" y="-1" width="61" height="98">
<g opacity="0.45">
<path d="M61 -0.184082H0V96.8159H61V-0.184082Z" fill="white"/>
<path d="M1.36353 95.8159V89.5886L31.7726 55.4068C35.7423 50.922 38.9393 47.0886 41.3635 43.9068C43.7878 40.725 45.5454 37.7856 46.6363 35.0886C47.7575 32.3917 48.3181 29.5886 48.3181 26.6796C48.3181 23.1341 47.4848 20.0432 45.8181 17.4068C44.1817 14.7402 41.9241 12.6644 39.0454 11.1796C36.1666 9.69469 32.9241 8.95227 29.3181 8.95227C25.4999 8.95227 22.1514 9.77045 19.2726 11.4068C16.4241 13.0432 14.212 15.2856 12.6363 18.1341C11.0605 20.9826 10.2726 24.2553 10.2726 27.9523H2.13625C2.13625 22.8008 3.31807 18.2402 5.68171 14.2705C8.07565 10.2705 11.3332 7.13409 15.4544 4.86136C19.606 2.58863 24.3029 1.45227 29.5454 1.45227C34.7272 1.45227 39.3332 2.57348 43.3635 4.81591C47.3938 7.02803 50.5605 10.0432 52.8635 13.8614C55.1666 17.6796 56.3181 21.9523 56.3181 26.6796C56.3181 30.1038 55.712 33.422 54.4999 36.6341C53.3181 39.8462 51.2726 43.422 48.3635 47.3614C45.4544 51.3008 41.4241 56.1189 36.2726 61.8159L13.1817 87.5886V88.1796H59.2272V95.8159H1.36353Z" fill="black"/>
</g>
</mask>
<g mask="url(#mask0_207_2655)">
<path d="M1.36353 95.8159H0.363525V96.8159H1.36353V95.8159ZM1.36353 89.5886L0.61639 88.924L0.363525 89.2082V89.5886H1.36353ZM31.7726 55.4068L32.5198 56.0715L32.5214 56.0696L31.7726 55.4068ZM46.6363 35.0886L45.7128 34.7047L45.7092 34.7137L46.6363 35.0886ZM45.8181 17.4068L44.9657 17.9299L44.9728 17.9412L45.8181 17.4068ZM19.2726 11.4068L18.7785 10.5374L18.7745 10.5397L19.2726 11.4068ZM10.2726 27.9523V28.9523H11.2726V27.9523H10.2726ZM2.13625 27.9523H1.13625V28.9523H2.13625V27.9523ZM5.68171 14.2705L4.82364 13.7569L4.82248 13.7589L5.68171 14.2705ZM15.4544 4.86136L14.9742 3.98419L14.9715 3.98568L15.4544 4.86136ZM43.3635 4.81591L42.8773 5.68977L42.8824 5.69254L43.3635 4.81591ZM54.4999 36.6341L53.5643 36.281L53.5614 36.2888L54.4999 36.6341ZM36.2726 61.8159L35.5309 61.1452L35.5278 61.1486L36.2726 61.8159ZM13.1817 87.5886L12.4369 86.9214L12.1817 87.2062V87.5886H13.1817ZM13.1817 88.1796H12.1817V89.1796H13.1817V88.1796ZM59.2272 88.1796H60.2272V87.1796H59.2272V88.1796ZM59.2272 95.8159V96.8159H60.2272V95.8159H59.2272ZM2.36353 95.8159V89.5886H0.363525V95.8159H2.36353ZM2.11066 90.2533L32.5198 56.0715L31.0255 54.7422L0.61639 88.924L2.11066 90.2533ZM32.5214 56.0696C36.5002 51.5745 39.7146 47.7212 42.159 44.5129L40.5681 43.3008C38.164 46.4561 34.9844 50.2695 31.0238 54.744L32.5214 56.0696ZM42.159 44.5129C44.6185 41.2847 46.4292 38.2675 47.5633 35.4636L45.7092 34.7137C44.6615 37.3038 42.957 40.1653 40.5681 43.3008L42.159 44.5129ZM47.5596 35.4725C48.7312 32.6544 49.3181 29.7209 49.3181 26.6796H47.3181C47.3181 29.4563 46.7836 32.1289 45.7128 34.7047L47.5596 35.4725ZM49.3181 26.6796C49.3181 22.9715 48.4444 19.6898 46.6633 16.8725L44.9728 17.9412C46.5251 20.3966 47.3181 23.2967 47.3181 26.6796H49.3181ZM46.6704 16.8838C44.9351 14.0559 42.5388 11.8562 39.5038 10.2908L38.587 12.0683C41.3095 13.4726 43.4282 15.4245 44.9657 17.9299L46.6704 16.8838ZM39.5038 10.2908C36.4678 8.72488 33.0653 7.95227 29.3181 7.95227V9.95227C32.783 9.95227 35.8653 10.6645 38.587 12.0683L39.5038 10.2908ZM29.3181 7.95227C25.3535 7.95227 21.8296 8.80301 18.7785 10.5374L19.7668 12.2762C22.4732 10.7378 25.6463 9.95227 29.3181 9.95227V7.95227ZM18.7745 10.5397C15.7693 12.2661 13.4262 14.6403 11.7612 17.65L13.5113 18.6182C14.9979 15.9309 17.079 13.8203 19.7708 12.2739L18.7745 10.5397ZM11.7612 17.65C10.0929 20.6658 9.27262 24.1093 9.27262 27.9523H11.2726C11.2726 24.4013 12.0281 21.2993 13.5113 18.6182L11.7612 17.65ZM10.2726 26.9523H2.13625V28.9523H10.2726V26.9523ZM3.13625 27.9523C3.13625 22.9596 4.27973 18.5797 6.54093 14.7821L4.82248 13.7589C2.35641 17.9006 1.13625 22.6419 1.13625 27.9523H3.13625ZM6.53977 14.784C8.84197 10.9373 11.9695 7.92521 15.9374 5.73703L14.9715 3.98568C10.697 6.34296 7.30932 9.60363 4.82364 13.7569L6.53977 14.784ZM15.9346 5.73852C19.9236 3.5548 24.4523 2.45227 29.5454 2.45227V0.452271C24.1535 0.452271 19.2884 1.62245 14.9742 3.98419L15.9346 5.73852ZM29.5454 2.45227C34.5784 2.45227 39.0134 3.53989 42.8773 5.68977L43.8497 3.94206C39.6531 1.60709 34.8759 0.452271 29.5454 0.452271V2.45227ZM42.8824 5.69254C46.7631 7.82255 49.7982 10.7155 52.0072 14.3779L53.7198 13.3449C51.3228 9.37082 48.0246 6.2335 43.8447 3.93927L42.8824 5.69254ZM52.0072 14.3779C54.2105 18.0307 55.3181 22.1229 55.3181 26.6796H57.3181C57.3181 21.7817 56.1226 17.3284 53.7198 13.3449L52.0072 14.3779ZM55.3181 26.6796C55.3181 29.9829 54.734 33.1815 53.5643 36.281L55.4355 36.9872C56.6901 33.6625 57.3181 30.2247 57.3181 26.6796H55.3181ZM53.5614 36.2888C52.423 39.383 50.434 42.8743 47.5591 46.7673L49.168 47.9554C52.1113 43.9697 54.2132 40.3095 55.4384 36.9794L53.5614 36.2888ZM47.5591 46.7673C44.6774 50.6697 40.6712 55.4607 35.5309 61.1452L37.0144 62.4866C42.1771 56.7772 46.2315 51.9319 49.168 47.9554L47.5591 46.7673ZM35.5278 61.1486L12.4369 86.9214L13.9265 88.2559L37.0174 62.4832L35.5278 61.1486ZM12.1817 87.5886V88.1796H14.1817V87.5886H12.1817ZM13.1817 89.1796H59.2272V87.1796H13.1817V89.1796ZM58.2272 88.1796V95.8159H60.2272V88.1796H58.2272ZM59.2272 94.8159H1.36353V96.8159H59.2272V94.8159Z" fill="url(#paint0_linear_207_2655)"/>
</g>
</g>
</g>
<defs>
<filter id="filter0_iii_207_2655" x="1.36353" y="1.45227" width="57.8638" height="110.322" filterUnits="userSpaceOnUse" color-interpolation-filters="sRGB">
<feFlood flood-opacity="0" result="BackgroundImageFix"/>
<feBlend mode="normal" in="SourceGraphic" in2="BackgroundImageFix" result="shape"/>
<feColorMatrix in="SourceAlpha" type="matrix" values="0 0 0 0 0 0 0 0 0 0 0 0 0 0 0 0 0 0 127 0" result="hardAlpha"/>
<feOffset dy="0.16284"/>
<feGaussianBlur stdDeviation="3.2568"/>
<feComposite in2="hardAlpha" operator="arithmetic" k2="-1" k3="1"/>
<feColorMatrix type="matrix" values="0 0 0 0 0.888917 0 0 0 0 0.870833 0 0 0 0 1 0 0 0 0.2 0"/>
<feBlend mode="normal" in2="shape" result="effect1_innerShadow_207_2655"/>
<feColorMatrix in="SourceAlpha" type="matrix" values="0 0 0 0 0 0 0 0 0 0 0 0 0 0 0 0 0 0 127 0" result="hardAlpha"/>
<feOffset dy="0.651361"/>
<feGaussianBlur stdDeviation="1.46556"/>
<feComposite in2="hardAlpha" operator="arithmetic" k2="-1" k3="1"/>
<feColorMatrix type="matrix" values="0 0 0 0 0.60543 0 0 0 0 0.574062 0 0 0 0 0.825 0 0 0 0.3 0"/>
<feBlend mode="normal" in2="effect1_innerShadow_207_2655" result="effect2_innerShadow_207_2655"/>
<feColorMatrix in="SourceAlpha" type="matrix" values="0 0 0 0 0 0 0 0 0 0 0 0 0 0 0 0 0 0 127 0" result="hardAlpha"/>
<feOffset dy="15.9583"/>
<feGaussianBlur stdDeviation="8.14201"/>
<feComposite in2="hardAlpha" operator="arithmetic" k2="-1" k3="1"/>
<feColorMatrix type="matrix" values="0 0 0 0 0.792093 0 0 0 0 0.675 0 0 0 0 1 0 0 0 0.3 0"/>
<feBlend mode="normal" in2="effect2_innerShadow_207_2655" result="effect3_innerShadow_207_2655"/>
</filter>
<linearGradient id="paint0_linear_207_2655" x1="88.6478" y1="128.187" x2="-16.4626" y2="120.545" gradientUnits="userSpaceOnUse">
<stop stop-color="#AB2FFE"/>
<stop offset="0.651937" stop-color="#336CFF"/>
<stop offset="0.96875" stop-color="#C01A56"/>
</linearGradient>
<clipPath id="clip0_207_2655">
<rect width="61" height="97" fill="white"/>
</clipPath>
</defs>
</svg>
