<svg width="63" height="98" viewBox="0 0 63 98" fill="none" xmlns="http://www.w3.org/2000/svg">
<g clip-path="url(#clip0_207_2637)">
<g opacity="0.45">
<g filter="url(#filter0_iii_207_2637)">
<path d="M31.5911 97.0886C25.8638 97.0886 20.7426 96.0583 16.2275 93.9977C11.7123 91.9068 8.13654 89.0129 5.50018 85.3159C2.86382 81.6189 1.46987 77.3614 1.31836 72.5432H9.90927C10.0608 75.9371 11.1063 78.9068 13.0457 81.4523C14.985 83.9674 17.5608 85.9371 20.7729 87.3614C23.9851 88.7553 27.5608 89.4523 31.5002 89.4523C35.8032 89.4523 39.5911 88.6493 42.8638 87.0432C46.1669 85.4371 48.7426 83.2402 50.5911 80.4523C52.4699 77.6341 53.4093 74.4523 53.4093 70.9068C53.4093 67.1493 52.4547 63.8311 50.5457 60.9523C48.6366 58.0735 45.8941 55.8311 42.3184 54.225C38.7729 52.6189 34.5305 51.8159 29.5911 51.8159H24.1366V44.1796H29.5911C33.6214 44.1796 37.182 43.4523 40.2729 41.9977C43.3941 40.5129 45.8487 38.4371 47.6366 35.7705C49.4244 33.1038 50.3184 29.9674 50.3184 26.3614C50.3184 22.9371 49.5457 19.922 48.0002 17.3159C46.4547 14.7099 44.2729 12.6644 41.4547 11.1796C38.6669 9.69469 35.4093 8.95227 31.682 8.95227C28.076 8.95227 24.7729 9.64924 21.7729 11.0432C18.7729 12.4371 16.3487 14.4068 14.5002 16.9523C12.682 19.4977 11.7123 22.5129 11.5911 25.9977H3.36382C3.48503 21.1492 4.81836 16.8917 7.36382 13.225C9.93957 9.52803 13.3487 6.64924 17.5911 4.58864C21.8638 2.49772 26.5911 1.45227 31.7729 1.45227C37.2578 1.45227 42.0002 2.57348 46.0002 4.81591C50.0002 7.05833 53.0911 10.0432 55.2729 13.7705C57.4851 17.4674 58.5911 21.5432 58.5911 25.9977C58.5911 31.3008 57.1517 35.8462 54.2729 39.6341C51.3941 43.3917 47.5154 45.9977 42.6366 47.4523V48.0432C48.576 49.225 53.2426 51.8614 56.6366 55.9523C60.0608 60.0129 61.7729 64.9977 61.7729 70.9068C61.7729 75.8765 60.4699 80.3462 57.8638 84.3159C55.2578 88.2553 51.682 91.3765 47.1366 93.6796C42.6214 95.9523 37.4396 97.0886 31.5911 97.0886Z" fill="#C4C4C4" fill-opacity="0.01"/>
</g>
<mask id="mask0_207_2637" style="mask-type:luminance" maskUnits="userSpaceOnUse" x="0" y="-1" width="63" height="100">
<g opacity="0.45">
<path d="M63 -0.184082H0V98.8159H63V-0.184082Z" fill="white"/>
<path d="M31.5911 97.0886C25.8638 97.0886 20.7426 96.0583 16.2275 93.9977C11.7123 91.9068 8.13654 89.0129 5.50018 85.3159C2.86382 81.6189 1.46987 77.3614 1.31836 72.5432H9.90927C10.0608 75.9371 11.1063 78.9068 13.0457 81.4523C14.985 83.9674 17.5608 85.9371 20.7729 87.3614C23.9851 88.7553 27.5608 89.4523 31.5002 89.4523C35.8032 89.4523 39.5911 88.6493 42.8638 87.0432C46.1669 85.4371 48.7426 83.2402 50.5911 80.4523C52.4699 77.6341 53.4093 74.4523 53.4093 70.9068C53.4093 67.1493 52.4547 63.8311 50.5457 60.9523C48.6366 58.0735 45.8941 55.8311 42.3184 54.225C38.7729 52.6189 34.5305 51.8159 29.5911 51.8159H24.1366V44.1796H29.5911C33.6214 44.1796 37.182 43.4523 40.2729 41.9977C43.3941 40.5129 45.8487 38.4371 47.6366 35.7705C49.4244 33.1038 50.3184 29.9674 50.3184 26.3614C50.3184 22.9371 49.5457 19.922 48.0002 17.3159C46.4547 14.7099 44.2729 12.6644 41.4547 11.1796C38.6669 9.69469 35.4093 8.95227 31.682 8.95227C28.076 8.95227 24.7729 9.64924 21.7729 11.0432C18.7729 12.4371 16.3487 14.4068 14.5002 16.9523C12.682 19.4977 11.7123 22.5129 11.5911 25.9977H3.36382C3.48503 21.1492 4.81836 16.8917 7.36382 13.225C9.93957 9.52803 13.3487 6.64924 17.5911 4.58864C21.8638 2.49772 26.5911 1.45227 31.7729 1.45227C37.2578 1.45227 42.0002 2.57348 46.0002 4.81591C50.0002 7.05833 53.0911 10.0432 55.2729 13.7705C57.4851 17.4674 58.5911 21.5432 58.5911 25.9977C58.5911 31.3008 57.1517 35.8462 54.2729 39.6341C51.3941 43.3917 47.5154 45.9977 42.6366 47.4523V48.0432C48.576 49.225 53.2426 51.8614 56.6366 55.9523C60.0608 60.0129 61.7729 64.9977 61.7729 70.9068C61.7729 75.8765 60.4699 80.3462 57.8638 84.3159C55.2578 88.2553 51.682 91.3765 47.1366 93.6796C42.6214 95.9523 37.4396 97.0886 31.5911 97.0886Z" fill="black"/>
</g>
</mask>
<g mask="url(#mask0_207_2637)">
<path d="M16.2272 93.9977L15.807 94.9052L15.812 94.9075L16.2272 93.9977ZM1.31807 72.5432V71.5432H0.286133L0.318568 72.5746L1.31807 72.5432ZM9.90898 72.5432L10.908 72.4986L10.8653 71.5432H9.90898V72.5432ZM13.0454 81.4523L12.2499 82.0583L12.2534 82.0629L13.0454 81.4523ZM20.7726 87.3614L20.3673 88.2756L20.3745 88.2787L20.7726 87.3614ZM42.8635 87.0432L42.4262 86.1439L42.423 86.1455L42.8635 87.0432ZM50.5908 80.4523L49.7588 79.8976L49.7574 79.8997L50.5908 80.4523ZM42.3181 54.225L41.9055 55.1359L41.9084 55.1372L42.3181 54.225ZM24.1363 51.8159H23.1363V52.8159H24.1363V51.8159ZM24.1363 44.1796V43.1796H23.1363V44.1796H24.1363ZM40.2726 41.9977L40.6984 42.9026L40.7022 42.9008L40.2726 41.9977ZM41.4544 11.1796L40.9844 12.0622L40.9883 12.0643L41.4544 11.1796ZM14.4999 16.9523L13.6907 16.3647L13.6862 16.371L14.4999 16.9523ZM11.5908 25.9977V26.9977H12.5566L12.5902 26.0325L11.5908 25.9977ZM3.36353 25.9977L2.36384 25.9727L2.33821 26.9977H3.36353V25.9977ZM7.36353 13.225L6.54303 12.6533L6.54207 12.6547L7.36353 13.225ZM17.5908 4.58864L18.0277 5.48815L18.0304 5.48685L17.5908 4.58864ZM55.2726 13.7705L54.4096 14.2757L54.4145 14.2839L55.2726 13.7705ZM54.2726 39.6341L55.0664 40.2423L55.0688 40.2392L54.2726 39.6341ZM42.6363 47.4523L42.3506 46.494L41.6363 46.7069V47.4523H42.6363ZM42.6363 48.0432H41.6363V48.8638L42.4411 49.024L42.6363 48.0432ZM56.6363 55.9523L55.8666 56.5908L55.8718 56.5969L56.6363 55.9523ZM57.8635 84.3159L58.6976 84.8677L58.6995 84.8647L57.8635 84.3159ZM47.1363 93.6796L47.5859 94.5728L47.5882 94.5716L47.1363 93.6796ZM31.5908 96.0886C25.9848 96.0886 21.0086 95.0806 16.6424 93.088L15.812 94.9075C20.4761 97.036 25.7422 98.0886 31.5908 98.0886V96.0886ZM16.6474 93.0903C12.2742 91.0651 8.84022 88.2777 6.31407 84.7353L4.68571 85.8965C7.43229 89.748 11.1498 92.7485 15.807 94.9052L16.6474 93.0903ZM6.31407 84.7353C3.79956 81.2092 2.46329 77.1454 2.31758 72.5118L0.318568 72.5746C0.475887 77.5773 1.9275 82.0287 4.68571 85.8965L6.31407 84.7353ZM1.31807 73.5432H9.90898V71.5432H1.31807V73.5432ZM8.90998 72.5878C9.06999 76.172 10.1793 79.3406 12.2499 82.0583L13.8408 80.8462C12.0327 78.4731 11.051 75.7023 10.908 72.4986L8.90998 72.5878ZM12.2534 82.0629C14.3049 84.7234 17.0196 86.7913 20.3673 88.2756L21.178 86.4472C18.1015 85.0831 15.6646 83.2115 13.8373 80.8416L12.2534 82.0629ZM20.3745 88.2787C23.7271 89.7336 27.4407 90.4523 31.4999 90.4523V88.4523C27.6803 88.4523 24.2424 87.777 21.1707 86.444L20.3745 88.2787ZM31.4999 90.4523C35.9283 90.4523 39.8716 89.6254 43.3041 87.9409L42.423 86.1455C39.31 87.6731 35.6776 88.4523 31.4999 88.4523V90.4523ZM43.3008 87.9425C46.7483 86.2662 49.4675 83.956 51.4243 81.0049L49.7574 79.8997C48.0171 82.5243 45.5847 84.608 42.4262 86.1439L43.3008 87.9425ZM51.4229 81.007C53.4164 78.0166 54.409 74.64 54.409 70.9068H52.409C52.409 74.2646 51.5228 77.2516 49.7588 79.8976L51.4229 81.007ZM54.409 70.9068C54.409 66.9707 53.406 63.4566 51.3788 60.3996L49.712 61.505C51.5028 64.2055 52.409 67.3278 52.409 70.9068H54.409ZM51.3788 60.3996C49.3517 57.3429 46.4521 54.9856 42.7278 53.3128L41.9084 55.1372C45.3356 56.6766 47.9209 58.8041 49.712 61.505L51.3788 60.3996ZM42.7307 53.3141C39.0257 51.6358 34.6355 50.8159 29.5908 50.8159V52.8159C34.4249 52.8159 38.5196 53.6021 41.9055 55.1359L42.7307 53.3141ZM29.5908 50.8159H24.1363V52.8159H29.5908V50.8159ZM25.1363 51.8159V44.1796H23.1363V51.8159H25.1363ZM24.1363 45.1796H29.5908V43.1796H24.1363V45.1796ZM29.5908 45.1796C33.7421 45.1796 37.4525 44.4301 40.6984 42.9026L39.8468 41.0929C36.911 42.4745 33.5001 43.1796 29.5908 43.1796V45.1796ZM40.7022 42.9008C43.9729 41.3448 46.5712 39.1548 48.4669 36.3273L46.8057 35.2136C45.1256 37.7195 42.8148 39.681 39.843 41.0947L40.7022 42.9008ZM48.4669 36.3273C50.3785 33.4761 51.3181 30.1404 51.3181 26.3614H49.3181C49.3181 29.7944 48.4698 32.7315 46.8057 35.2136L48.4669 36.3273ZM51.3181 26.3614C51.3181 22.7815 50.5085 19.5856 48.86 16.8058L47.1398 17.826C48.5822 20.2583 49.3181 23.0928 49.3181 26.3614H51.3181ZM48.86 16.8058C47.2154 14.0326 44.8934 11.8612 41.9206 10.2948L40.9883 12.0643C43.6519 13.4676 45.6935 15.3871 47.1398 17.826L48.86 16.8058ZM41.9245 10.2969C38.968 8.72223 35.5434 7.95227 31.6817 7.95227V9.95227C35.2745 9.95227 38.3652 10.6672 40.9844 12.0622L41.9245 10.2969ZM31.6817 7.95227C27.9434 7.95227 24.4948 8.67565 21.3512 10.1363L22.194 11.9501C25.0505 10.6228 28.2079 9.95227 31.6817 9.95227V7.95227ZM21.3512 10.1363C18.2052 11.5981 15.6444 13.6744 13.6907 16.3647L15.3091 17.5399C17.0523 15.1393 19.3401 13.2761 22.194 11.9501L21.3512 10.1363ZM13.6862 16.371C11.7409 19.0945 10.7186 22.305 10.5914 25.963L12.5902 26.0325C12.7054 22.7207 13.6226 19.901 15.3136 17.5335L13.6862 16.371ZM11.5908 24.9977H3.36353V26.9977H11.5908V24.9977ZM4.36321 26.0227C4.47999 21.3519 5.76057 17.2876 8.18498 13.7953L6.54207 12.6547C3.87557 16.4958 2.48949 20.9466 2.36384 25.9727L4.36321 26.0227ZM8.18402 13.7967C10.6574 10.2466 13.9316 7.47769 18.0277 5.48815L17.1539 3.68913C12.7652 5.8208 9.22116 8.80934 6.54303 12.6533L8.18402 13.7967ZM18.0304 5.48685C22.1543 3.46874 26.7293 2.45227 31.7726 2.45227V0.452271C26.4523 0.452271 21.5727 1.52671 17.1513 3.69042L18.0304 5.48685ZM31.7726 2.45227C37.1198 2.45227 41.687 3.54451 45.5109 5.68819L46.4889 3.94363C42.3128 1.60245 37.3952 0.452271 31.7726 0.452271V2.45227ZM45.5109 5.68819C49.3658 7.84925 52.3232 10.7115 54.4096 14.2757L56.1356 13.2653C53.8584 9.375 50.634 6.26741 46.4889 3.94363L45.5109 5.68819ZM54.4145 14.2839C56.5305 17.8203 57.5908 21.7176 57.5908 25.9977H59.5908C59.5908 21.3688 58.439 17.1146 56.1307 13.257L54.4145 14.2839ZM57.5908 25.9977C57.5908 31.1086 56.2079 35.435 53.4765 39.029L55.0688 40.2392C58.0949 36.2574 59.5908 31.4929 59.5908 25.9977H57.5908ZM53.4788 39.0259C50.7381 42.6033 47.0434 45.0948 42.3506 46.494L42.922 48.4106C47.9867 46.9006 52.0496 44.1801 55.0664 40.2423L53.4788 39.0259ZM41.6363 47.4523V48.0432H43.6363V47.4523H41.6363ZM42.4411 49.024C48.1885 50.1676 52.6394 52.7008 55.8666 56.5908L57.4059 55.3138C53.8452 51.0219 48.9628 48.2824 42.8314 47.0624L42.4411 49.024ZM55.8718 56.5969C59.1266 60.4566 60.7726 65.2053 60.7726 70.9068H62.7726C62.7726 64.7901 60.9944 59.5691 57.4007 55.3076L55.8718 56.5969ZM60.7726 70.9068C60.7726 75.6911 59.5215 79.9683 57.0276 83.7671L58.6995 84.8647C61.4177 80.7242 62.7726 76.062 62.7726 70.9068H60.7726ZM57.0295 83.7642C54.5266 87.5476 51.0876 90.5565 46.6843 92.7875L47.5882 94.5716C52.2758 92.1965 55.9883 88.963 58.6976 84.8677L57.0295 83.7642ZM46.6867 92.7863C42.3314 94.9786 37.3077 96.0886 31.5908 96.0886V98.0886C37.5709 98.0886 42.9109 96.926 47.5859 94.5728L46.6867 92.7863Z" fill="url(#paint0_linear_207_2637)"/>
</g>
</g>
</g>
<defs>
<filter id="filter0_iii_207_2637" x="1.31836" y="1.45227" width="60.4546" height="111.595" filterUnits="userSpaceOnUse" color-interpolation-filters="sRGB">
<feFlood flood-opacity="0" result="BackgroundImageFix"/>
<feBlend mode="normal" in="SourceGraphic" in2="BackgroundImageFix" result="shape"/>
<feColorMatrix in="SourceAlpha" type="matrix" values="0 0 0 0 0 0 0 0 0 0 0 0 0 0 0 0 0 0 127 0" result="hardAlpha"/>
<feOffset dy="0.16284"/>
<feGaussianBlur stdDeviation="3.2568"/>
<feComposite in2="hardAlpha" operator="arithmetic" k2="-1" k3="1"/>
<feColorMatrix type="matrix" values="0 0 0 0 0.888917 0 0 0 0 0.870833 0 0 0 0 1 0 0 0 0.2 0"/>
<feBlend mode="normal" in2="shape" result="effect1_innerShadow_207_2637"/>
<feColorMatrix in="SourceAlpha" type="matrix" values="0 0 0 0 0 0 0 0 0 0 0 0 0 0 0 0 0 0 127 0" result="hardAlpha"/>
<feOffset dy="0.651361"/>
<feGaussianBlur stdDeviation="1.46556"/>
<feComposite in2="hardAlpha" operator="arithmetic" k2="-1" k3="1"/>
<feColorMatrix type="matrix" values="0 0 0 0 0.60543 0 0 0 0 0.574062 0 0 0 0 0.825 0 0 0 0.3 0"/>
<feBlend mode="normal" in2="effect1_innerShadow_207_2637" result="effect2_innerShadow_207_2637"/>
<feColorMatrix in="SourceAlpha" type="matrix" values="0 0 0 0 0 0 0 0 0 0 0 0 0 0 0 0 0 0 127 0" result="hardAlpha"/>
<feOffset dy="15.9583"/>
<feGaussianBlur stdDeviation="8.14201"/>
<feComposite in2="hardAlpha" operator="arithmetic" k2="-1" k3="1"/>
<feColorMatrix type="matrix" values="0 0 0 0 0.792093 0 0 0 0 0.675 0 0 0 0 1 0 0 0 0.3 0"/>
<feBlend mode="normal" in2="effect2_innerShadow_207_2637" result="effect3_innerShadow_207_2637"/>
</filter>
<linearGradient id="paint0_linear_207_2637" x1="91.1199" y1="128.187" x2="-16.6225" y2="120.155" gradientUnits="userSpaceOnUse">
<stop stop-color="#AB2FFE"/>
<stop offset="0.651937" stop-color="#336CFF"/>
<stop offset="0.96875" stop-color="#C01A56"/>
</linearGradient>
<clipPath id="clip0_207_2637">
<rect width="63" height="98" fill="white"/>
</clipPath>
</defs>
</svg>
