<svg width="113" height="20" viewBox="0 0 113 20" fill="none" xmlns="http://www.w3.org/2000/svg">
<path d="M10.4993 4.58331V13.25L13.9993 15.3889L13.0827 11.3889L16.166 8.7222L12.1105 8.36109L10.4993 4.58331ZM5.3049 17.6922L6.68267 11.7889L2.10156 7.81998L8.13601 7.29776L10.4993 1.72998L12.8627 7.29665L18.896 7.81887L14.316 11.7878L15.6938 17.6911L10.4993 14.5578L5.3049 17.6922Z" fill="#FFDE33"/>
<path d="M12.9988 7.99989L10.4987 4.44434L8.83203 13.3332L14.9431 16.111L13.2765 11.6666L16.9988 8.49989L12.9988 7.99989Z" fill="#FFDE33"/>
<path d="M33.4993 4.58331V13.25L36.9993 15.3889L36.0827 11.3889L39.166 8.7222L35.1105 8.36109L33.4993 4.58331ZM28.3049 17.6922L29.6827 11.7889L25.1016 7.81998L31.136 7.29776L33.4993 1.72998L35.8627 7.29665L41.896 7.81887L37.316 11.7878L38.6938 17.6911L33.4993 14.5578L28.3049 17.6922Z" fill="#FFDE33"/>
<path d="M35.9988 7.99989L33.4987 4.44434L31.832 13.3332L37.9431 16.111L36.2765 11.6666L39.9988 8.49989L35.9988 7.99989Z" fill="#FFDE33"/>
<path d="M56.4993 4.58331V13.25L59.9993 15.3889L59.0827 11.3889L62.166 8.7222L58.1105 8.36109L56.4993 4.58331ZM51.3049 17.6922L52.6827 11.7889L48.1016 7.81998L54.136 7.29776L56.4993 1.72998L58.8627 7.29665L64.896 7.81887L60.316 11.7878L61.6938 17.6911L56.4993 14.5578L51.3049 17.6922Z" fill="#FFDE33"/>
<path d="M58.9988 7.99989L56.4987 4.44434L54.832 13.3332L60.9431 16.111L59.2765 11.6666L62.9988 8.49989L58.9988 7.99989Z" fill="#FFDE33"/>
<path d="M79.4993 4.58331V13.25L82.9993 15.3889L82.0827 11.3889L85.166 8.7222L81.1105 8.36109L79.4993 4.58331ZM74.3049 17.6922L75.6827 11.7889L71.1016 7.81998L77.136 7.29776L79.4993 1.72998L81.8627 7.29665L87.896 7.81887L83.316 11.7878L84.6938 17.6911L79.4993 14.5578L74.3049 17.6922Z" fill="#FFDE33"/>
<path d="M81.9988 7.99989L79.4987 4.44434L77.832 13.3332L83.9431 16.111L82.2765 11.6666L85.9988 8.49989L81.9988 7.99989Z" fill="#FFDE33"/>
<path d="M102.499 4.58331V13.25L105.999 15.3889L105.083 11.3889L108.166 8.7222L104.11 8.36109L102.499 4.58331ZM97.3049 17.6922L98.6827 11.7889L94.1016 7.81998L100.136 7.29776L102.499 1.72998L104.863 7.29665L110.896 7.81887L106.316 11.7878L107.694 17.6911L102.499 14.5578L97.3049 17.6922Z" fill="#FFDE33"/>
<path d="M104.721 7.77767L102.499 4.44434L100.832 13.3332L106.943 16.111L105.276 11.6666L109.499 8.49988L104.721 7.77767Z" fill="#FFDE33"/>
</svg>
