<svg width="44" height="45" viewBox="0 0 44 45" fill="none" xmlns="http://www.w3.org/2000/svg">
<g id="Done_ring_round">
<path id="Vector" d="M16.5 19.1053L22.9463 23.94C23.4467 24.3153 24.1516 24.2415 24.5635 23.7708L36.6667 9.9386" stroke="white" stroke-width="2.63028" stroke-linecap="round"/>
<path id="Ellipse" d="M38.5 22.772C38.5 26.2195 37.4201 29.5805 35.412 32.3829C33.4038 35.1852 30.5684 37.2881 27.3038 38.3963C24.0391 39.5045 20.5094 39.5623 17.2103 38.5615C13.9112 37.5607 11.0084 35.5517 8.90967 32.8165C6.81092 30.0814 5.62164 26.7576 5.50883 23.3118C5.39603 19.8661 6.36539 16.4716 8.28075 13.6051C10.1961 10.7385 12.9613 8.54393 16.1879 7.32953C19.4145 6.11512 22.9404 5.9419 26.2705 6.8342" stroke="white" stroke-width="2.63028" stroke-linecap="round"/>
</g>
</svg>
