<svg width="380" height="394" viewBox="0 0 380 394" fill="none" xmlns="http://www.w3.org/2000/svg">
<path opacity="0.6" d="M78.5681 289.773C48.4962 321.868 11.5791 315.415 0.5 309.7V353H402.5L398.851 -6C335.542 0.155177 275.87 56.3269 264.516 114.361C253.161 172.396 244.552 168.029 217.542 189.392C190.533 210.755 193.139 209.802 183.028 230.859C172.918 251.917 142.932 255.04 142.932 255.04C142.932 255.04 105.499 255.04 78.5681 289.773Z" fill="url(#paint0_linear_159_1428)"/>
<path d="M-2 309.5C9.08004 315.218 48.0005 322.174 78.0749 290.065C100.642 260.95 130.583 256.23 139.698 255.465C141.533 255.311 143.358 255.229 145.172 254.909C152.793 253.563 174.29 248.322 182.544 231.125C192.655 210.058 190.049 211.012 217.061 189.64C244.073 168.268 252.683 172.636 264.038 114.576C275.394 56.5166 336.635 -1.2435 399.949 -7.40137" stroke="url(#paint1_linear_159_1428)" stroke-width="2.12879"/>
<path d="M261.291 40.8947C261.291 35.0981 263.081 29.4429 266.415 24.7016C282.229 2.21617 317.588 13.4052 317.588 40.8947V289.724C317.588 305.27 304.986 317.873 289.44 317.873C273.894 317.873 261.291 305.27 261.291 289.724V40.8947Z" fill="url(#paint2_linear_159_1428)"/>
<g opacity="0.9" filter="url(#filter0_d_159_1428)">
<circle cx="290.44" cy="289.724" r="21.8935" fill="url(#paint3_radial_159_1428)"/>
</g>
<path d="M289.44 299.107C289.15 299.107 288.867 299.022 288.628 298.865C285.083 296.548 283.548 294.959 282.701 293.965C280.897 291.847 280.033 289.673 280.057 287.319C280.086 284.621 282.333 282.426 285.068 282.426C287.056 282.426 288.433 283.505 289.235 284.403C289.261 284.431 289.292 284.454 289.327 284.469C289.363 284.485 289.401 284.493 289.44 284.493C289.478 284.493 289.517 284.485 289.552 284.469C289.587 284.454 289.618 284.431 289.644 284.403C290.446 283.504 291.823 282.426 293.811 282.426C296.546 282.426 298.794 284.621 298.822 287.319C298.846 289.674 297.982 291.848 296.178 293.966C295.332 294.959 293.797 296.548 290.251 298.865C290.012 299.023 289.729 299.107 289.44 299.107Z" fill="url(#paint4_linear_159_1428)"/>
<path d="M324.365 22.8324L327.493 8.75799L307.163 -5.83765L259.728 23.8749C256.252 65.403 252.638 139.076 265.983 101.545C279.327 64.0129 304.557 37.428 324.365 22.8324Z" fill="#111E28"/>
<g filter="url(#filter1_b_159_1428)">
<circle cx="284.226" cy="65.5769" r="11.468" fill="url(#paint5_linear_159_1428)"/>
</g>
<path d="M273.801 67.1516C274.095 67.1516 274.333 66.9133 274.333 66.6194C274.333 66.3255 274.095 66.0872 273.801 66.0872L273.801 67.1516ZM273.801 66.0872L249.822 66.0872L249.822 67.1516L273.801 67.1516L273.801 66.0872Z" fill="url(#paint6_linear_159_1428)"/>
<circle cx="284.228" cy="65.577" r="6.25527" fill="white"/>
<g filter="url(#filter2_f_159_1428)">
<ellipse cx="150.259" cy="355.404" rx="223.626" ry="14.5956" fill="#111E28"/>
</g>
<path opacity="0.8" d="M321.339 347.596V346.641L324.293 343.582C324.608 343.249 324.868 342.958 325.072 342.708C325.28 342.455 325.435 342.215 325.537 341.988C325.639 341.761 325.69 341.519 325.69 341.264C325.69 340.974 325.622 340.724 325.486 340.514C325.349 340.3 325.163 340.137 324.928 340.024C324.692 339.907 324.426 339.849 324.131 339.849C323.818 339.849 323.545 339.913 323.312 340.041C323.08 340.168 322.901 340.349 322.776 340.582C322.651 340.815 322.588 341.087 322.588 341.4H321.331C321.331 340.869 321.453 340.404 321.697 340.006C321.942 339.609 322.277 339.3 322.703 339.082C323.129 338.86 323.614 338.749 324.156 338.749C324.705 338.749 325.188 338.859 325.605 339.077C326.026 339.293 326.354 339.589 326.589 339.964C326.825 340.336 326.943 340.756 326.943 341.225C326.943 341.549 326.882 341.866 326.76 342.175C326.641 342.485 326.432 342.83 326.134 343.211C325.835 343.589 325.42 344.048 324.889 344.587L323.155 346.403V346.467H327.084V347.596H321.339ZM331.617 347.741C330.944 347.738 330.369 347.56 329.891 347.208C329.414 346.856 329.049 346.343 328.796 345.67C328.543 344.997 328.417 344.185 328.417 343.237C328.417 342.291 328.543 341.482 328.796 340.812C329.052 340.141 329.418 339.63 329.896 339.278C330.376 338.925 330.95 338.749 331.617 338.749C332.285 338.749 332.857 338.927 333.335 339.282C333.812 339.634 334.177 340.146 334.43 340.816C334.685 341.484 334.813 342.291 334.813 343.237C334.813 344.188 334.687 345.001 334.434 345.674C334.181 346.345 333.816 346.857 333.339 347.212C332.862 347.565 332.288 347.741 331.617 347.741ZM331.617 346.603C332.208 346.603 332.67 346.315 333.002 345.738C333.337 345.161 333.505 344.327 333.505 343.237C333.505 342.512 333.428 341.9 333.275 341.4C333.124 340.897 332.907 340.516 332.623 340.258C332.342 339.997 332.006 339.866 331.617 339.866C331.029 339.866 330.568 340.156 330.232 340.735C329.897 341.315 329.728 342.149 329.725 343.237C329.725 343.964 329.8 344.579 329.951 345.082C330.104 345.582 330.322 345.961 330.603 346.22C330.884 346.475 331.222 346.603 331.617 346.603ZM339.278 347.596V341.05H340.501V342.116H340.582C340.718 341.755 340.941 341.474 341.251 341.272C341.56 341.068 341.931 340.965 342.363 340.965C342.801 340.965 343.167 341.068 343.462 341.272C343.761 341.477 343.981 341.758 344.123 342.116H344.191C344.347 341.766 344.596 341.488 344.937 341.281C345.278 341.07 345.684 340.965 346.156 340.965C346.749 340.965 347.234 341.151 347.609 341.524C347.987 341.896 348.176 342.457 348.176 343.207V347.596H346.901V343.326C346.901 342.883 346.781 342.562 346.539 342.363C346.298 342.164 346.009 342.065 345.674 342.065C345.259 342.065 344.937 342.193 344.707 342.448C344.477 342.701 344.362 343.026 344.362 343.424V347.596H343.092V343.245C343.092 342.89 342.981 342.604 342.759 342.389C342.538 342.173 342.249 342.065 341.894 342.065C341.653 342.065 341.43 342.129 341.225 342.256C341.024 342.381 340.86 342.556 340.735 342.781C340.613 343.005 340.552 343.265 340.552 343.56V347.596H339.278ZM349.763 347.596V341.05H351.037V347.596H349.763ZM350.407 340.041C350.185 340.041 349.995 339.967 349.836 339.819C349.679 339.668 349.601 339.489 349.601 339.282C349.601 339.072 349.679 338.893 349.836 338.745C349.995 338.595 350.185 338.519 350.407 338.519C350.628 338.519 350.817 338.595 350.973 338.745C351.133 338.893 351.212 339.072 351.212 339.282C351.212 339.489 351.133 339.668 350.973 339.819C350.817 339.967 350.628 340.041 350.407 340.041ZM353.906 343.71V347.596H352.632V341.05H353.855V342.116H353.936C354.086 341.769 354.322 341.491 354.643 341.281C354.967 341.07 355.374 340.965 355.866 340.965C356.312 340.965 356.703 341.059 357.038 341.247C357.373 341.431 357.633 341.707 357.818 342.073C358.002 342.44 358.095 342.893 358.095 343.433V347.596H356.82V343.586C356.82 343.112 356.697 342.741 356.45 342.474C356.203 342.204 355.863 342.069 355.431 342.069C355.136 342.069 354.873 342.133 354.643 342.261C354.416 342.389 354.235 342.576 354.102 342.823C353.971 343.068 353.906 343.363 353.906 343.71Z" fill="white"/>
<path opacity="0.8" d="M260.651 338.869V347.596H259.33V340.19H259.278L257.19 341.553V340.292L259.368 338.869H260.651ZM265.772 347.715C265.238 347.715 264.758 347.613 264.332 347.408C263.908 347.201 263.57 346.917 263.318 346.556C263.065 346.195 262.93 345.783 262.913 345.32H264.191C264.222 345.695 264.389 346.004 264.69 346.245C264.991 346.487 265.352 346.607 265.772 346.607C266.107 346.607 266.404 346.531 266.663 346.377C266.924 346.221 267.129 346.006 267.276 345.734C267.427 345.461 267.502 345.15 267.502 344.8C267.502 344.445 267.425 344.129 267.272 343.85C267.119 343.572 266.907 343.353 266.637 343.194C266.37 343.035 266.063 342.954 265.717 342.951C265.452 342.951 265.187 342.997 264.92 343.087C264.653 343.178 264.437 343.298 264.272 343.445L263.066 343.266L263.556 338.869H268.354V339.998H264.651L264.374 342.44H264.425C264.596 342.275 264.822 342.137 265.103 342.026C265.387 341.916 265.691 341.86 266.015 341.86C266.546 341.86 267.019 341.987 267.434 342.239C267.852 342.492 268.18 342.837 268.418 343.275C268.66 343.71 268.779 344.21 268.776 344.775C268.779 345.34 268.651 345.845 268.393 346.288C268.137 346.731 267.782 347.08 267.327 347.336C266.876 347.589 266.357 347.715 265.772 347.715ZM273.286 347.596V341.05H274.509V342.116H274.59C274.726 341.755 274.949 341.474 275.259 341.272C275.568 341.068 275.939 340.965 276.371 340.965C276.808 340.965 277.175 341.068 277.47 341.272C277.769 341.477 277.989 341.758 278.131 342.116H278.199C278.355 341.766 278.604 341.488 278.945 341.281C279.286 341.07 279.692 340.965 280.163 340.965C280.757 340.965 281.242 341.151 281.617 341.524C281.994 341.896 282.183 342.457 282.183 343.207V347.596H280.909V343.326C280.909 342.883 280.788 342.562 280.547 342.363C280.305 342.164 280.017 342.065 279.682 342.065C279.267 342.065 278.945 342.193 278.715 342.448C278.484 342.701 278.369 343.026 278.369 343.424V347.596H277.1V343.245C277.1 342.89 276.989 342.604 276.767 342.389C276.546 342.173 276.257 342.065 275.902 342.065C275.661 342.065 275.438 342.129 275.233 342.256C275.031 342.381 274.868 342.556 274.743 342.781C274.621 343.005 274.56 343.265 274.56 343.56V347.596H273.286ZM283.771 347.596V341.05H285.045V347.596H283.771ZM284.415 340.041C284.193 340.041 284.003 339.967 283.844 339.819C283.687 339.668 283.609 339.489 283.609 339.282C283.609 339.072 283.687 338.893 283.844 338.745C284.003 338.595 284.193 338.519 284.415 338.519C284.636 338.519 284.825 338.595 284.981 338.745C285.14 338.893 285.22 339.072 285.22 339.282C285.22 339.489 285.14 339.668 284.981 339.819C284.825 339.967 284.636 340.041 284.415 340.041ZM287.913 343.71V347.596H286.639V341.05H287.862V342.116H287.943C288.094 341.769 288.33 341.491 288.651 341.281C288.975 341.07 289.382 340.965 289.874 340.965C290.32 340.965 290.71 341.059 291.046 341.247C291.381 341.431 291.641 341.707 291.825 342.073C292.01 342.44 292.102 342.893 292.102 343.433V347.596H290.828V343.586C290.828 343.112 290.705 342.741 290.458 342.474C290.21 342.204 289.871 342.069 289.439 342.069C289.144 342.069 288.881 342.133 288.651 342.261C288.423 342.389 288.243 342.576 288.11 342.823C287.979 343.068 287.913 343.363 287.913 343.71Z" fill="white"/>
<path opacity="0.8" d="M196.651 338.869V347.596H195.33V340.19H195.278L193.19 341.553V340.292L195.368 338.869H196.651ZM201.93 347.741C201.256 347.738 200.681 347.56 200.204 347.208C199.727 346.856 199.362 346.343 199.109 345.67C198.856 344.997 198.729 344.185 198.729 343.237C198.729 342.291 198.856 341.482 199.109 340.812C199.364 340.141 199.731 339.63 200.208 339.278C200.688 338.925 201.262 338.749 201.93 338.749C202.597 338.749 203.17 338.927 203.647 339.282C204.124 339.634 204.489 340.146 204.742 340.816C204.998 341.484 205.126 342.291 205.126 343.237C205.126 344.188 204.999 345.001 204.746 345.674C204.494 346.345 204.129 346.857 203.651 347.212C203.174 347.565 202.6 347.741 201.93 347.741ZM201.93 346.603C202.521 346.603 202.982 346.315 203.315 345.738C203.65 345.161 203.818 344.327 203.818 343.237C203.818 342.512 203.741 341.9 203.587 341.4C203.437 340.897 203.219 340.516 202.935 340.258C202.654 339.997 202.319 339.866 201.93 339.866C201.342 339.866 200.88 340.156 200.545 340.735C200.21 341.315 200.041 342.149 200.038 343.237C200.038 343.964 200.113 344.579 200.264 345.082C200.417 345.582 200.634 345.961 200.916 346.22C201.197 346.475 201.535 346.603 201.93 346.603ZM209.59 347.596V341.05H210.813V342.116H210.894C211.031 341.755 211.254 341.474 211.563 341.272C211.873 341.068 212.244 340.965 212.676 340.965C213.113 340.965 213.479 341.068 213.775 341.272C214.073 341.477 214.293 341.758 214.435 342.116H214.504C214.66 341.766 214.908 341.488 215.249 341.281C215.59 341.07 215.997 340.965 216.468 340.965C217.062 340.965 217.546 341.151 217.921 341.524C218.299 341.896 218.488 342.457 218.488 343.207V347.596H217.214V343.326C217.214 342.883 217.093 342.562 216.852 342.363C216.61 342.164 216.322 342.065 215.987 342.065C215.572 342.065 215.249 342.193 215.019 342.448C214.789 342.701 214.674 343.026 214.674 343.424V347.596H213.404V343.245C213.404 342.89 213.293 342.604 213.072 342.389C212.85 342.173 212.562 342.065 212.207 342.065C211.965 342.065 211.742 342.129 211.538 342.256C211.336 342.381 211.173 342.556 211.048 342.781C210.926 343.005 210.864 343.265 210.864 343.56V347.596H209.59ZM220.076 347.596V341.05H221.35V347.596H220.076ZM220.719 340.041C220.498 340.041 220.307 339.967 220.148 339.819C219.992 339.668 219.914 339.489 219.914 339.282C219.914 339.072 219.992 338.893 220.148 338.745C220.307 338.595 220.498 338.519 220.719 338.519C220.941 338.519 221.13 338.595 221.286 338.745C221.445 338.893 221.525 339.072 221.525 339.282C221.525 339.489 221.445 339.668 221.286 339.819C221.13 339.967 220.941 340.041 220.719 340.041ZM224.218 343.71V347.596H222.944V341.05H224.167V342.116H224.248C224.399 341.769 224.634 341.491 224.955 341.281C225.279 341.07 225.687 340.965 226.178 340.965C226.624 340.965 227.015 341.059 227.35 341.247C227.686 341.431 227.945 341.707 228.13 342.073C228.315 342.44 228.407 342.893 228.407 343.433V347.596H227.133V343.586C227.133 343.112 227.009 342.741 226.762 342.474C226.515 342.204 226.176 342.069 225.744 342.069C225.448 342.069 225.186 342.133 224.955 342.261C224.728 342.389 224.548 342.576 224.414 342.823C224.284 343.068 224.218 343.363 224.218 343.71Z" fill="white"/>
<path opacity="0.8" d="M138.22 347.715C137.686 347.715 137.206 347.613 136.78 347.408C136.357 347.201 136.018 346.917 135.766 346.556C135.513 346.195 135.378 345.783 135.361 345.32H136.639C136.67 345.695 136.837 346.004 137.138 346.245C137.439 346.487 137.8 346.607 138.22 346.607C138.555 346.607 138.852 346.531 139.111 346.377C139.372 346.221 139.577 346.006 139.724 345.734C139.875 345.461 139.95 345.15 139.95 344.8C139.95 344.445 139.874 344.129 139.72 343.85C139.567 343.572 139.355 343.353 139.085 343.194C138.818 343.035 138.511 342.954 138.165 342.951C137.901 342.951 137.635 342.997 137.368 343.087C137.101 343.178 136.885 343.298 136.72 343.445L135.514 343.266L136.004 338.869H140.803V339.998H137.099L136.822 342.44H136.874C137.044 342.275 137.27 342.137 137.551 342.026C137.835 341.916 138.139 341.86 138.463 341.86C138.994 341.86 139.467 341.987 139.882 342.239C140.3 342.492 140.628 342.837 140.866 343.275C141.108 343.71 141.227 344.21 141.224 344.775C141.227 345.34 141.099 345.845 140.841 346.288C140.585 346.731 140.23 347.08 139.776 347.336C139.324 347.589 138.805 347.715 138.22 347.715ZM145.734 347.596V341.05H146.957V342.116H147.038C147.174 341.755 147.397 341.474 147.707 341.272C148.016 341.068 148.387 340.965 148.819 340.965C149.256 340.965 149.623 341.068 149.918 341.272C150.217 341.477 150.437 341.758 150.579 342.116H150.647C150.803 341.766 151.052 341.488 151.393 341.281C151.734 341.07 152.14 340.965 152.612 340.965C153.205 340.965 153.69 341.151 154.065 341.524C154.443 341.896 154.631 342.457 154.631 343.207V347.596H153.357V343.326C153.357 342.883 153.237 342.562 152.995 342.363C152.754 342.164 152.465 342.065 152.13 342.065C151.715 342.065 151.393 342.193 151.163 342.448C150.933 342.701 150.818 343.026 150.818 343.424V347.596H149.548V343.245C149.548 342.89 149.437 342.604 149.215 342.389C148.994 342.173 148.705 342.065 148.35 342.065C148.109 342.065 147.886 342.129 147.681 342.256C147.479 342.381 147.316 342.556 147.191 342.781C147.069 343.005 147.008 343.265 147.008 343.56V347.596H145.734ZM156.219 347.596V341.05H157.493V347.596H156.219ZM156.863 340.041C156.641 340.041 156.451 339.967 156.292 339.819C156.135 339.668 156.057 339.489 156.057 339.282C156.057 339.072 156.135 338.893 156.292 338.745C156.451 338.595 156.641 338.519 156.863 338.519C157.084 338.519 157.273 338.595 157.429 338.745C157.589 338.893 157.668 339.072 157.668 339.282C157.668 339.489 157.589 339.668 157.429 339.819C157.273 339.967 157.084 340.041 156.863 340.041ZM160.362 343.71V347.596H159.087V341.05H160.31V342.116H160.391C160.542 341.769 160.778 341.491 161.099 341.281C161.423 341.07 161.83 340.965 162.322 340.965C162.768 340.965 163.158 341.059 163.494 341.247C163.829 341.431 164.089 341.707 164.274 342.073C164.458 342.44 164.551 342.893 164.551 343.433V347.596H163.276V343.586C163.276 343.112 163.153 342.741 162.906 342.474C162.658 342.204 162.319 342.069 161.887 342.069C161.592 342.069 161.329 342.133 161.099 342.261C160.872 342.389 160.691 342.576 160.558 342.823C160.427 343.068 160.362 343.363 160.362 343.71Z" fill="white"/>
<path opacity="0.8" d="M79.3778 347.715C78.7926 347.715 78.2699 347.614 77.8097 347.413C77.3523 347.211 76.9901 346.931 76.723 346.573C76.4588 346.212 76.3168 345.795 76.2969 345.32H77.6349C77.652 345.579 77.7386 345.803 77.8949 345.994C78.054 346.181 78.2614 346.326 78.517 346.428C78.7727 346.531 79.0568 346.582 79.3693 346.582C79.7131 346.582 80.017 346.522 80.2812 346.403C80.5483 346.283 80.7571 346.117 80.9077 345.904C81.0582 345.688 81.1335 345.44 81.1335 345.158C81.1335 344.866 81.0582 344.609 80.9077 344.387C80.7599 344.163 80.5426 343.987 80.2557 343.859C79.9716 343.731 79.6278 343.667 79.2244 343.667H78.4872V342.593H79.2244C79.5483 342.593 79.8324 342.535 80.0767 342.418C80.3239 342.302 80.517 342.14 80.6562 341.933C80.7955 341.722 80.8651 341.477 80.8651 341.195C80.8651 340.925 80.804 340.691 80.6818 340.492C80.5625 340.291 80.392 340.133 80.1705 340.019C79.9517 339.906 79.6932 339.849 79.3949 339.849C79.1108 339.849 78.8452 339.901 78.598 340.006C78.3537 340.109 78.1548 340.256 78.0014 340.45C77.848 340.64 77.7656 340.869 77.7543 341.136H76.4801C76.4943 340.664 76.6335 340.249 76.8977 339.891C77.1648 339.533 77.517 339.254 77.9545 339.052C78.392 338.85 78.8778 338.749 79.4119 338.749C79.9716 338.749 80.4545 338.859 80.8608 339.077C81.2699 339.293 81.5852 339.582 81.8068 339.943C82.0313 340.303 82.142 340.698 82.1392 341.127C82.142 341.616 82.0057 342.031 81.7301 342.372C81.4574 342.712 81.0938 342.941 80.6392 343.058V343.126C81.2188 343.214 81.6676 343.444 81.9858 343.816C82.3068 344.188 82.4659 344.65 82.4631 345.201C82.4659 345.681 82.3324 346.112 82.0625 346.492C81.7955 346.873 81.4304 347.173 80.9673 347.391C80.5043 347.607 79.9744 347.715 79.3778 347.715ZM87.0267 347.596V341.05H88.2497V342.116H88.3307C88.467 341.755 88.69 341.474 88.9997 341.272C89.3094 341.068 89.6801 340.965 90.1119 340.965C90.5494 340.965 90.9159 341.068 91.2113 341.272C91.5096 341.477 91.7298 341.758 91.8719 342.116H91.94C92.0963 341.766 92.3449 341.488 92.6858 341.281C93.0267 341.07 93.4329 340.965 93.9045 340.965C94.4983 340.965 94.9827 341.151 95.3577 341.524C95.7355 341.896 95.9244 342.457 95.9244 343.207V347.596H94.6503V343.326C94.6503 342.883 94.5295 342.562 94.2881 342.363C94.0466 342.164 93.7582 342.065 93.423 342.065C93.0082 342.065 92.6858 342.193 92.4557 342.448C92.2256 342.701 92.1105 343.026 92.1105 343.424V347.596H90.8406V343.245C90.8406 342.89 90.7298 342.604 90.5082 342.389C90.2866 342.173 89.9983 342.065 89.6432 342.065C89.4017 342.065 89.1787 342.129 88.9741 342.256C88.7724 342.381 88.6091 342.556 88.4841 342.781C88.3619 343.005 88.3008 343.265 88.3008 343.56V347.596H87.0267ZM97.5122 347.596V341.05H98.7863V347.596H97.5122ZM98.1556 340.041C97.934 340.041 97.7437 339.967 97.5846 339.819C97.4284 339.668 97.3502 339.489 97.3502 339.282C97.3502 339.072 97.4284 338.893 97.5846 338.745C97.7437 338.595 97.934 338.519 98.1556 338.519C98.3772 338.519 98.5661 338.595 98.7224 338.745C98.8815 338.893 98.961 339.072 98.961 339.282C98.961 339.489 98.8815 339.668 98.7224 339.819C98.5661 339.967 98.3772 340.041 98.1556 340.041ZM101.655 343.71V347.596H100.38V341.05H101.603V342.116H101.684C101.835 341.769 102.071 341.491 102.392 341.281C102.716 341.07 103.123 340.965 103.615 340.965C104.061 340.965 104.451 341.059 104.787 341.247C105.122 341.431 105.382 341.707 105.567 342.073C105.751 342.44 105.844 342.893 105.844 343.433V347.596H104.569V343.586C104.569 343.112 104.446 342.741 104.199 342.474C103.951 342.204 103.612 342.069 103.18 342.069C102.885 342.069 102.622 342.133 102.392 342.261C102.165 342.389 101.984 342.576 101.851 342.823C101.72 343.068 101.655 343.363 101.655 343.71Z" fill="white"/>
<path opacity="0.8" d="M22.6506 338.869V347.596H21.3295V340.19H21.2784L19.1903 341.553V340.292L21.3679 338.869H22.6506ZM27.9642 347.596V341.05H29.1872V342.116H29.2682C29.4045 341.755 29.6275 341.474 29.9372 341.272C30.2469 341.068 30.6176 340.965 31.0494 340.965C31.4869 340.965 31.8534 341.068 32.1488 341.272C32.4471 341.477 32.6673 341.758 32.8094 342.116H32.8775C33.0338 341.766 33.2824 341.488 33.6233 341.281C33.9642 341.07 34.3704 340.965 34.842 340.965C35.4358 340.965 35.9202 341.151 36.2952 341.524C36.673 341.896 36.8619 342.457 36.8619 343.207V347.596H35.5878V343.326C35.5878 342.883 35.467 342.562 35.2256 342.363C34.9841 342.164 34.6957 342.065 34.3605 342.065C33.9457 342.065 33.6233 342.193 33.3932 342.448C33.1631 342.701 33.048 343.026 33.048 343.424V347.596H31.7781V343.245C31.7781 342.89 31.6673 342.604 31.4457 342.389C31.2241 342.173 30.9358 342.065 30.5807 342.065C30.3392 342.065 30.1162 342.129 29.9116 342.256C29.7099 342.381 29.5466 342.556 29.4216 342.781C29.2994 343.005 29.2383 343.265 29.2383 343.56V347.596H27.9642ZM38.4497 347.596V341.05H39.7238V347.596H38.4497ZM39.0931 340.041C38.8715 340.041 38.6812 339.967 38.5221 339.819C38.3659 339.668 38.2877 339.489 38.2877 339.282C38.2877 339.072 38.3659 338.893 38.5221 338.745C38.6812 338.595 38.8715 338.519 39.0931 338.519C39.3147 338.519 39.5036 338.595 39.6599 338.745C39.819 338.893 39.8985 339.072 39.8985 339.282C39.8985 339.489 39.819 339.668 39.6599 339.819C39.5036 339.967 39.3147 340.041 39.0931 340.041ZM42.5921 343.71V347.596H41.3179V341.05H42.541V342.116H42.6219C42.7725 341.769 43.0083 341.491 43.3293 341.281C43.6532 341.07 44.0608 340.965 44.5523 340.965C44.9983 340.965 45.389 341.059 45.7242 341.247C46.0594 341.431 46.3194 341.707 46.504 342.073C46.6887 342.44 46.781 342.893 46.781 343.433V347.596H45.5069V343.586C45.5069 343.112 45.3833 342.741 45.1361 342.474C44.889 342.204 44.5495 342.069 44.1177 342.069C43.8222 342.069 43.5594 342.133 43.3293 342.261C43.102 342.389 42.9216 342.576 42.7881 342.823C42.6574 343.068 42.5921 343.363 42.5921 343.71Z" fill="white"/>
<path d="M45.5253 210.262C45.1808 210.537 45.1245 211.039 45.3996 211.384C45.6748 211.728 46.1771 211.785 46.5216 211.51L45.5253 210.262ZM176.595 107.336C176.644 106.898 176.329 106.503 175.89 106.454L168.75 105.654C168.312 105.605 167.917 105.92 167.868 106.359C167.819 106.797 168.135 107.192 168.573 107.241L174.919 107.952L174.209 114.298C174.16 114.736 174.475 115.131 174.913 115.18C175.351 115.229 175.746 114.914 175.795 114.476L176.595 107.336ZM46.5216 211.51L176.3 107.871L175.303 106.623L45.5253 210.262L46.5216 211.51Z" fill="url(#paint7_linear_159_1428)"/>
<path d="M28.0665 268.019C27.7264 268.3 27.678 268.803 27.9585 269.143C28.239 269.483 28.7421 269.531 29.0823 269.251L28.0665 268.019ZM152.942 166.821C152.984 166.382 152.662 165.992 152.223 165.95L145.072 165.262C144.633 165.22 144.243 165.541 144.201 165.98C144.159 166.419 144.48 166.809 144.919 166.851L151.276 167.462L150.665 173.819C150.623 174.258 150.944 174.648 151.383 174.69C151.822 174.733 152.212 174.411 152.254 173.972L152.942 166.821ZM29.0823 269.251L152.655 167.36L151.639 166.128L28.0665 268.019L29.0823 269.251Z" fill="url(#paint8_linear_159_1428)"/>
<path d="M32.8804 175.098C32.5277 175.363 32.4562 175.863 32.7208 176.216C32.9853 176.569 33.4857 176.64 33.8384 176.375L32.8804 175.098ZM132.576 102.021C132.639 101.584 132.335 101.18 131.899 101.118L124.786 100.102C124.35 100.04 123.945 100.343 123.883 100.779C123.821 101.216 124.124 101.62 124.561 101.682L130.883 102.585L129.98 108.907C129.918 109.344 130.221 109.748 130.657 109.811C131.094 109.873 131.498 109.57 131.561 109.133L132.576 102.021ZM33.8384 176.375L132.265 102.546L131.307 101.269L32.8804 175.098L33.8384 176.375Z" fill="url(#paint9_linear_159_1428)"/>
<g opacity="0.3" filter="url(#filter3_f_159_1428)">
<ellipse cx="66.2146" cy="182.515" rx="78.7122" ry="82.3611" transform="rotate(30 66.2146 182.515)" fill="url(#paint10_linear_159_1428)"/>
</g>
<g filter="url(#filter4_b_159_1428)">
<rect x="150.781" y="47.8535" width="99.0418" height="35.4465" rx="17.7233" fill="url(#paint11_linear_159_1428)"/>
<rect x="151.313" y="48.3857" width="97.9774" height="34.3821" rx="17.1911" stroke="url(#paint12_linear_159_1428)" stroke-width="1.06439"/>
<path d="M167.496 69.6196V61.9027H169.247V69.6196H167.496ZM164.513 66.6365V64.8857H172.23V66.6365H164.513ZM179.002 60.0292V71.4485H176.933V62.0421H176.866L174.195 63.7483V61.8525L177.033 60.0292H179.002ZM185.808 71.6659C184.89 71.6659 184.102 71.4336 183.444 70.969C182.79 70.5006 182.286 69.8259 181.933 68.9449C181.583 68.0602 181.409 66.9953 181.409 65.75C181.412 64.5047 181.589 63.4453 181.938 62.5718C182.292 61.6945 182.795 61.0254 183.449 60.5645C184.107 60.1035 184.894 59.8731 185.808 59.8731C186.722 59.8731 187.509 60.1035 188.167 60.5645C188.825 61.0254 189.328 61.6945 189.678 62.5718C190.031 63.449 190.207 64.5084 190.207 65.75C190.207 66.999 190.031 68.0658 189.678 68.9505C189.328 69.8315 188.825 70.5043 188.167 70.969C187.512 71.4336 186.726 71.6659 185.808 71.6659ZM185.808 69.9207C186.522 69.9207 187.085 69.5694 187.497 68.8669C187.914 68.1606 188.122 67.1216 188.122 65.75C188.122 64.843 188.027 64.081 187.838 63.4639C187.648 62.8468 187.38 62.3822 187.035 62.0699C186.689 61.754 186.28 61.596 185.808 61.596C185.098 61.596 184.537 61.9491 184.124 62.6554C183.711 63.358 183.503 64.3895 183.5 65.75C183.496 66.6607 183.587 67.4265 183.773 68.0472C183.962 68.668 184.23 69.1364 184.576 69.4523C184.921 69.7646 185.332 69.9207 185.808 69.9207ZM193.693 69.8873L193.621 70.5006C193.569 70.969 193.476 71.4448 193.342 71.928C193.212 72.415 193.074 72.8629 192.929 73.2718C192.784 73.6807 192.667 74.0022 192.578 74.2364H191.218C191.27 74.0096 191.34 73.7011 191.429 73.3108C191.522 72.9205 191.612 72.4819 191.697 71.9949C191.783 71.508 191.84 71.0136 191.87 70.5117L191.909 69.8873H193.693ZM199.394 71.6659C198.476 71.6659 197.688 71.4336 197.03 70.969C196.376 70.5006 195.872 69.8259 195.519 68.9449C195.169 68.0602 194.995 66.9953 194.995 65.75C194.998 64.5047 195.175 63.4453 195.524 62.5718C195.878 61.6945 196.381 61.0254 197.036 60.5645C197.693 60.1035 198.48 59.8731 199.394 59.8731C200.309 59.8731 201.095 60.1035 201.753 60.5645C202.411 61.0254 202.914 61.6945 203.264 62.5718C203.617 63.449 203.793 64.5084 203.793 65.75C203.793 66.999 203.617 68.0658 203.264 68.9505C202.914 69.8315 202.411 70.5043 201.753 70.969C201.098 71.4336 200.312 71.6659 199.394 71.6659ZM199.394 69.9207C200.108 69.9207 200.671 69.5694 201.084 68.8669C201.5 68.1606 201.708 67.1216 201.708 65.75C201.708 64.843 201.613 64.081 201.424 63.4639C201.234 62.8468 200.966 62.3822 200.621 62.0699C200.275 61.754 199.866 61.596 199.394 61.596C198.684 61.596 198.123 61.9491 197.71 62.6554C197.298 63.358 197.089 64.3895 197.086 65.75C197.082 66.6607 197.173 67.4265 197.359 68.0472C197.549 68.668 197.816 69.1364 198.162 69.4523C198.508 69.7646 198.918 69.9207 199.394 69.9207ZM209.553 71.6659C208.635 71.6659 207.847 71.4336 207.189 70.969C206.534 70.5006 206.031 69.8259 205.678 68.9449C205.328 68.0602 205.154 66.9953 205.154 65.75C205.157 64.5047 205.334 63.4453 205.683 62.5718C206.036 61.6945 206.54 61.0254 207.194 60.5645C207.852 60.1035 208.638 59.8731 209.553 59.8731C210.467 59.8731 211.253 60.1035 211.911 60.5645C212.569 61.0254 213.073 61.6945 213.422 62.5718C213.776 63.449 213.952 64.5084 213.952 65.75C213.952 66.999 213.776 68.0658 213.422 68.9505C213.073 69.8315 212.569 70.5043 211.911 70.969C211.257 71.4336 210.471 71.6659 209.553 71.6659ZM209.553 69.9207C210.267 69.9207 210.83 69.5694 211.242 68.8669C211.659 68.1606 211.867 67.1216 211.867 65.75C211.867 64.843 211.772 64.081 211.582 63.4639C211.393 62.8468 211.125 62.3822 210.78 62.0699C210.434 61.754 210.025 61.596 209.553 61.596C208.843 61.596 208.282 61.9491 207.869 62.6554C207.456 63.358 207.248 64.3895 207.244 65.75C207.241 66.6607 207.332 67.4265 207.518 68.0472C207.707 68.668 207.975 69.1364 208.321 69.4523C208.666 69.7646 209.077 69.9207 209.553 69.9207ZM219.712 71.6659C218.793 71.6659 218.005 71.4336 217.347 70.969C216.693 70.5006 216.19 69.8259 215.836 68.9449C215.487 68.0602 215.312 66.9953 215.312 65.75C215.316 64.5047 215.493 63.4453 215.842 62.5718C216.195 61.6945 216.699 61.0254 217.353 60.5645C218.011 60.1035 218.797 59.8731 219.712 59.8731C220.626 59.8731 221.412 60.1035 222.07 60.5645C222.728 61.0254 223.232 61.6945 223.581 62.5718C223.934 63.449 224.111 64.5084 224.111 65.75C224.111 66.999 223.934 68.0658 223.581 68.9505C223.232 69.8315 222.728 70.5043 222.07 70.969C221.416 71.4336 220.63 71.6659 219.712 71.6659ZM219.712 69.9207C220.425 69.9207 220.988 69.5694 221.401 68.8669C221.817 68.1606 222.026 67.1216 222.026 65.75C222.026 64.843 221.931 64.081 221.741 63.4639C221.552 62.8468 221.284 62.3822 220.938 62.0699C220.593 61.754 220.184 61.596 219.712 61.596C219.002 61.596 218.44 61.9491 218.028 62.6554C217.615 63.358 217.407 64.3895 217.403 65.75C217.4 66.6607 217.491 67.4265 217.676 68.0472C217.866 68.668 218.134 69.1364 218.479 69.4523C218.825 69.7646 219.236 69.9207 219.712 69.9207Z" fill="white"/>
<path d="M233.992 72.1169C233.785 72.1167 233.582 72.0543 233.41 71.938C230.868 70.224 229.767 69.0488 229.16 68.314C227.866 66.7478 227.246 65.1398 227.264 63.3985C227.284 61.4031 228.896 59.78 230.857 59.78C232.283 59.78 233.271 60.5778 233.846 61.2421C233.864 61.263 233.887 61.2797 233.912 61.2911C233.937 61.3026 233.965 61.3085 233.992 61.3085C234.02 61.3085 234.048 61.3026 234.073 61.2911C234.098 61.2797 234.121 61.263 234.139 61.2421C234.714 60.5771 235.702 59.78 237.128 59.78C239.089 59.78 240.701 61.4031 240.721 63.3989C240.739 65.1405 240.119 66.7485 238.825 68.3143C238.218 69.0491 237.117 70.2243 234.575 71.9383C234.403 72.0545 234.2 72.1168 233.992 72.1169Z" fill="white"/>
</g>
<defs>
<filter id="filter0_d_159_1428" x="266.418" y="267.831" width="60.8172" height="60.8172" filterUnits="userSpaceOnUse" color-interpolation-filters="sRGB">
<feFlood flood-opacity="0" result="BackgroundImageFix"/>
<feColorMatrix in="SourceAlpha" type="matrix" values="0 0 0 0 0 0 0 0 0 0 0 0 0 0 0 0 0 0 127 0" result="hardAlpha"/>
<feOffset dx="6.38636" dy="8.51515"/>
<feGaussianBlur stdDeviation="4.25758"/>
<feComposite in2="hardAlpha" operator="out"/>
<feColorMatrix type="matrix" values="0 0 0 0 0 0 0 0 0 0 0 0 0 0 0 0 0 0 0.6 0"/>
<feBlend mode="normal" in2="BackgroundImageFix" result="effect1_dropShadow_159_1428"/>
<feBlend mode="normal" in="SourceGraphic" in2="effect1_dropShadow_159_1428" result="shape"/>
</filter>
<filter id="filter1_b_159_1428" x="263.178" y="44.5293" width="42.0951" height="42.0951" filterUnits="userSpaceOnUse" color-interpolation-filters="sRGB">
<feFlood flood-opacity="0" result="BackgroundImageFix"/>
<feGaussianBlur in="BackgroundImageFix" stdDeviation="4.78977"/>
<feComposite in2="SourceAlpha" operator="in" result="effect1_backgroundBlur_159_1428"/>
<feBlend mode="normal" in="SourceGraphic" in2="effect1_backgroundBlur_159_1428" result="shape"/>
</filter>
<filter id="filter2_f_159_1428" x="-96.7839" y="317.392" width="494.085" height="76.0246" filterUnits="userSpaceOnUse" color-interpolation-filters="sRGB">
<feFlood flood-opacity="0" result="BackgroundImageFix"/>
<feBlend mode="normal" in="SourceGraphic" in2="BackgroundImageFix" result="shape"/>
<feGaussianBlur stdDeviation="11.7083" result="effect1_foregroundBlur_159_1428"/>
</filter>
<filter id="filter3_f_159_1428" x="-77.3009" y="37.172" width="287.031" height="290.686" filterUnits="userSpaceOnUse" color-interpolation-filters="sRGB">
<feFlood flood-opacity="0" result="BackgroundImageFix"/>
<feBlend mode="normal" in="SourceGraphic" in2="BackgroundImageFix" result="shape"/>
<feGaussianBlur stdDeviation="31.9318" result="effect1_foregroundBlur_159_1428"/>
</filter>
<filter id="filter4_b_159_1428" x="140.137" y="37.2096" width="120.33" height="56.7344" filterUnits="userSpaceOnUse" color-interpolation-filters="sRGB">
<feFlood flood-opacity="0" result="BackgroundImageFix"/>
<feGaussianBlur in="BackgroundImageFix" stdDeviation="5.32197"/>
<feComposite in2="SourceAlpha" operator="in" result="effect1_backgroundBlur_159_1428"/>
<feBlend mode="normal" in="SourceGraphic" in2="effect1_backgroundBlur_159_1428" result="shape"/>
</filter>
<linearGradient id="paint0_linear_159_1428" x1="138.237" y1="106.546" x2="256.494" y2="308.747" gradientUnits="userSpaceOnUse">
<stop stop-color="#FF206E"/>
<stop offset="1" stop-color="#111E28"/>
</linearGradient>
<linearGradient id="paint1_linear_159_1428" x1="72.5883" y1="360.096" x2="93.6836" y2="-6.00418" gradientUnits="userSpaceOnUse">
<stop stop-color="#AB2FFE"/>
<stop offset="0.843403" stop-color="#FF206E"/>
<stop offset="1" stop-color="#336CFF"/>
</linearGradient>
<linearGradient id="paint2_linear_159_1428" x1="289.44" y1="24.8402" x2="289.44" y2="317.873" gradientUnits="userSpaceOnUse">
<stop offset="0.0899358" stop-color="#FFFBFC" stop-opacity="0"/>
<stop offset="1" stop-color="#FF337A"/>
</linearGradient>
<radialGradient id="paint3_radial_159_1428" cx="0" cy="0" r="1" gradientUnits="userSpaceOnUse" gradientTransform="translate(280.71 278.372) rotate(59.2007) scale(39.5503)">
<stop stop-color="#FC90B5"/>
<stop offset="0.538067" stop-color="#FF206E"/>
<stop offset="0.835623" stop-color="#A70940"/>
<stop offset="1" stop-color="#E9105B"/>
</radialGradient>
<linearGradient id="paint4_linear_159_1428" x1="289.44" y1="277.374" x2="289.44" y2="306.6" gradientUnits="userSpaceOnUse">
<stop stop-color="white" stop-opacity="0.9"/>
<stop offset="1" stop-color="white" stop-opacity="0.67"/>
</linearGradient>
<linearGradient id="paint5_linear_159_1428" x1="284.226" y1="47.1626" x2="284.226" y2="87.3472" gradientUnits="userSpaceOnUse">
<stop stop-color="white" stop-opacity="0.15"/>
<stop offset="1" stop-color="white" stop-opacity="0.1"/>
</linearGradient>
<linearGradient id="paint6_linear_159_1428" x1="273.801" y1="66.1194" x2="250.679" y2="66.1194" gradientUnits="userSpaceOnUse">
<stop stop-color="white"/>
<stop offset="1" stop-color="white" stop-opacity="0"/>
</linearGradient>
<linearGradient id="paint7_linear_159_1428" x1="101.674" y1="125.899" x2="50.8249" y2="167.643" gradientUnits="userSpaceOnUse">
<stop stop-color="white"/>
<stop offset="1" stop-color="white" stop-opacity="0"/>
</linearGradient>
<linearGradient id="paint8_linear_159_1428" x1="116.119" y1="156.484" x2="27.1832" y2="228.614" gradientUnits="userSpaceOnUse">
<stop stop-color="white"/>
<stop offset="1" stop-color="white" stop-opacity="0"/>
</linearGradient>
<linearGradient id="paint9_linear_159_1428" x1="95.7573" y1="91.6474" x2="6.82166" y2="163.777" gradientUnits="userSpaceOnUse">
<stop stop-color="white"/>
<stop offset="1" stop-color="white" stop-opacity="0"/>
</linearGradient>
<linearGradient id="paint10_linear_159_1428" x1="66.2146" y1="100.154" x2="66.2146" y2="264.876" gradientUnits="userSpaceOnUse">
<stop offset="0.04" stop-color="#FF2353"/>
<stop offset="0.71" stop-color="#1E37BD"/>
<stop offset="1" stop-color="#0E98FD"/>
</linearGradient>
<linearGradient id="paint11_linear_159_1428" x1="200.302" y1="37.1184" x2="200.302" y2="99.2218" gradientUnits="userSpaceOnUse">
<stop stop-color="white" stop-opacity="0.15"/>
<stop offset="1" stop-color="white" stop-opacity="0.1"/>
</linearGradient>
<linearGradient id="paint12_linear_159_1428" x1="121.16" y1="45.6029" x2="140.948" y2="94.3084" gradientUnits="userSpaceOnUse">
<stop stop-color="white" stop-opacity="0.1"/>
<stop offset="0.32449" stop-color="#5D91DE"/>
<stop offset="0.663265" stop-color="#91CAEA" stop-opacity="0.83"/>
<stop offset="1" stop-color="white" stop-opacity="0.42"/>
</linearGradient>
</defs>
</svg>
