<svg width="44" height="44" viewBox="0 0 44 44" fill="none" xmlns="http://www.w3.org/2000/svg">
<g id="Group">
<path id="Ellipse" d="M28.3334 14.6667C28.3334 18.1645 25.4978 21 22 21C18.5022 21 15.6667 18.1645 15.6667 14.6667C15.6667 11.1689 18.5022 8.33333 22 8.33333C25.4978 8.33333 28.3334 11.1689 28.3334 14.6667Z" stroke="white" stroke-width="2" stroke-linecap="round"/>
<path id="Ellipse_2" d="M27.2696 14.25C27.8663 13.2164 28.8492 12.4622 30.002 12.1533C31.1548 11.8444 32.3831 12.0061 33.4167 12.6029C34.4503 13.1996 35.2045 14.1825 35.5134 15.3353C35.8222 16.4881 35.6605 17.7164 35.0638 18.75C34.4671 19.7836 33.4842 20.5378 32.3314 20.8467C31.1786 21.1556 29.9503 20.9939 28.9167 20.3971C27.8831 19.8004 27.1289 18.8175 26.82 17.6647C26.5111 16.5119 26.6728 15.2836 27.2696 14.25L27.2696 14.25Z" stroke="white" stroke-width="2"/>
<path id="Ellipse_3" d="M8.9362 14.25C9.53294 13.2164 10.5158 12.4622 11.6686 12.1533C12.8214 11.8444 14.0497 12.0061 15.0833 12.6029C16.1169 13.1996 16.8711 14.1825 17.18 15.3353C17.4889 16.4881 17.3272 17.7164 16.7304 18.75C16.1337 19.7836 15.1508 20.5378 13.998 20.8467C12.8452 21.1556 11.6169 20.9939 10.5833 20.3971C9.54973 19.8004 8.79554 18.8175 8.48665 17.6647C8.17775 16.5119 8.33946 15.2836 8.9362 14.25L8.9362 14.25Z" stroke="white" stroke-width="2"/>
<path id="Subtract" d="M30.9496 33L29.9693 33.1974L30.1309 34H30.9496V33ZM38.2671 31.8937L39.2332 31.6357V31.6357L38.2671 31.8937ZM27.0981 26.9693L26.4933 26.173L25.3367 27.0514L26.57 27.8185L27.0981 26.9693ZM37.3672 32H30.9496V34H37.3672V32ZM37.301 32.1518C37.2979 32.1404 37.2953 32.1167 37.302 32.0877C37.3082 32.0605 37.32 32.0398 37.3313 32.0263C37.3537 31.9993 37.3728 32 37.3672 32V34C38.5422 34 39.579 32.9303 39.2332 31.6357L37.301 32.1518ZM31.1667 26.6667C33.254 26.6667 34.6258 27.5491 35.5648 28.6581C36.5311 29.7993 37.0457 31.1962 37.301 32.1518L39.2332 31.6357C38.9413 30.5425 38.3274 28.8258 37.0912 27.3657C35.8276 25.8734 33.9228 24.6667 31.1667 24.6667V26.6667ZM27.703 27.7657C28.5505 27.1219 29.6653 26.6667 31.1667 26.6667V24.6667C29.2215 24.6667 27.6831 25.2692 26.4933 26.173L27.703 27.7657ZM26.57 27.8185C28.7623 29.182 29.6317 31.5211 29.9693 33.1974L31.9299 32.8026C31.5486 30.909 30.5079 27.9124 27.6263 26.1202L26.57 27.8185Z" fill="white"/>
<path id="Subtract_2" d="M16.9018 26.9693L17.43 27.8185L18.6633 27.0514L17.5067 26.173L16.9018 26.9693ZM5.73286 31.8937L4.76673 31.6357H4.76673L5.73286 31.8937ZM13.0503 33V34H13.869L14.0306 33.1974L13.0503 33ZM12.8334 26.6667C14.3347 26.6667 15.4495 27.1219 16.297 27.7656L17.5067 26.173C16.3169 25.2692 14.7785 24.6667 12.8334 24.6667V26.6667ZM6.69899 32.1518C6.95423 31.1962 7.46891 29.7993 8.4352 28.6581C9.37423 27.5491 10.7461 26.6667 12.8334 26.6667V24.6667C10.0772 24.6667 8.17239 25.8734 6.90885 27.3657C5.67257 28.8258 5.05873 30.5425 4.76673 31.6357L6.69899 32.1518ZM6.63279 32C6.62713 32 6.64631 31.9993 6.66865 32.0263C6.67993 32.0398 6.69174 32.0605 6.69799 32.0877C6.70464 32.1167 6.70203 32.1404 6.69899 32.1518L4.76673 31.6357C4.42093 32.9303 5.45777 34 6.63279 34V32ZM13.0503 32H6.63279V34H13.0503V32ZM14.0306 33.1974C14.3683 31.5211 15.2376 29.1819 17.43 27.8185L16.3737 26.1201C13.492 27.9123 12.4514 30.909 12.07 32.8026L14.0306 33.1974Z" fill="white"/>
<path id="Vector" d="M22 25.6667C29.293 25.6667 30.7837 31.469 31.0884 33.841C31.1587 34.3888 30.7189 34.8333 30.1666 34.8333H13.8333C13.281 34.8333 12.8412 34.3888 12.9116 33.841C13.2163 31.469 14.7069 25.6667 22 25.6667Z" stroke="white" stroke-width="2" stroke-linecap="round"/>
</g>
</svg>
