<svg width="166" height="33" viewBox="0 0 166 33" fill="none" xmlns="http://www.w3.org/2000/svg">
<g clip-path="url(#clip0_159_1182)">
<path d="M44.2988 26.516V9.0188H54.8269V12.1563H47.7561V16.1333H54.3667V19.2835H47.7561V26.516H44.2988Z" fill="white"/>
<path d="M66.5844 26.5152H63.7786L63.6101 25.1266C63.1988 25.6394 62.6897 26.0387 62.0836 26.3228C61.4776 26.6068 60.8113 26.7484 60.0856 26.7484C59.3006 26.7484 58.6002 26.5905 57.9863 26.2756C57.3724 25.9606 56.8895 25.5259 56.5384 24.9696C56.1865 24.4141 56.011 23.7816 56.011 23.0745C56.011 22.3285 56.2014 21.6705 56.5839 21.1033C56.9646 20.5361 57.4912 20.0904 58.161 19.7673C58.8299 19.4451 59.5914 19.2836 60.4454 19.2836C60.9458 19.2836 61.4497 19.3417 61.9553 19.4588C62.4609 19.5758 62.9298 19.7392 63.3638 19.9489V19.6457C63.3638 19.1792 63.239 18.7772 62.9883 18.4386C62.7377 18.101 62.3937 17.8378 61.9553 17.6509C61.5178 17.4639 61.0288 17.3704 60.4908 17.3704C59.9529 17.3704 59.4639 17.4557 58.9591 17.6273C58.4544 17.7988 57.9881 18.0547 57.5619 18.3978L56.686 15.843C57.4423 15.4382 58.2072 15.1332 58.9809 14.9272C59.7555 14.7212 60.5057 14.6187 61.2313 14.6187C62.3238 14.6187 63.2704 14.8428 64.0712 15.2894C64.872 15.7368 65.4911 16.3666 65.9286 17.1789C66.3652 17.9912 66.5853 18.9541 66.5853 20.0659V26.517V26.5152H66.5844ZM60.793 24.17C61.2191 24.17 61.6269 24.0729 62.0164 23.8778C62.4059 23.6835 62.722 23.4185 62.9648 23.0845C63.2075 22.7505 63.3368 22.3803 63.3525 21.9764V21.8947C63.0233 21.6614 62.6583 21.4799 62.2583 21.352C61.8575 21.224 61.4514 21.1596 61.0401 21.1596C60.4262 21.1596 59.9249 21.2993 59.5355 21.5798C59.146 21.8602 58.9521 22.2214 58.9521 22.6652C58.9521 22.9529 59.0325 23.2116 59.1932 23.4412C59.3538 23.6708 59.573 23.8496 59.8498 23.9776C60.1267 24.1056 60.441 24.17 60.7921 24.17H60.793Z" fill="white"/>
<path d="M87.2729 26.517H84.0514V20.6613C84.0514 19.6893 83.868 18.9387 83.5021 18.4096C83.1354 17.8805 82.6158 17.6164 81.9416 17.6164C81.2675 17.6164 80.7164 17.8841 80.3305 18.4214C79.9445 18.9578 79.7524 19.7047 79.7524 20.6613V26.517H76.5309V20.6613C76.5309 19.6893 76.3475 18.9387 75.9816 18.4096C75.6149 17.8805 75.0909 17.6164 74.4097 17.6164C73.7286 17.6164 73.195 17.8841 72.8108 18.4214C72.4248 18.9578 72.2327 19.7047 72.2327 20.6613V26.517H69.0112V14.8519H71.5813L71.6939 16.7769C72.0677 16.069 72.5715 15.5335 73.2038 15.1677C73.836 14.802 74.5704 14.6196 75.4096 14.6196C76.2488 14.6196 77.0409 14.8102 77.6775 15.1904C78.3132 15.5716 78.8031 16.1198 79.1481 16.835C79.5306 16.1116 80.0362 15.5616 80.6693 15.1841C81.3015 14.8074 82.0517 14.6187 82.9206 14.6187C84.2898 14.6187 85.3578 15.0715 86.1254 15.9773C86.8921 16.8831 87.2764 18.1491 87.2764 19.7737V26.5161H87.2746L87.2729 26.517Z" fill="white"/>
<path d="M100.034 25.2091C98.6423 26.2355 97.1193 26.7483 95.4662 26.7483C94.2393 26.7483 93.1372 26.4742 92.16 25.9251C91.1846 25.377 90.4135 24.6328 89.8485 23.6907C89.2835 22.7504 89.0006 21.6886 89.0006 20.506C89.0006 19.3234 89.2573 18.3714 89.7699 17.4847C90.2817 16.598 90.9794 15.8982 91.8623 15.3845C92.7451 14.8718 93.7476 14.614 94.8706 14.614C95.9937 14.614 97.0512 14.8963 97.9349 15.4599C98.8178 16.0235 99.5068 16.8094 100 17.8169C100.494 18.8243 100.742 19.9887 100.742 21.3101V21.6831H92.47C92.6045 22.1415 92.8237 22.5444 93.1267 22.8902C93.4298 23.2369 93.8114 23.5101 94.2707 23.7134C94.7309 23.9158 95.2566 24.0165 95.8478 24.0165C96.9927 24.0165 98.0589 23.6317 99.0466 22.8621L100.034 25.2063V25.2091ZM92.3233 19.9832H97.7673C97.707 19.4777 97.5551 19.0321 97.3123 18.6473C97.0695 18.2625 96.7516 17.9612 96.3587 17.7433C95.9657 17.5255 95.5265 17.4175 95.0401 17.4175C94.5537 17.4175 94.1065 17.5301 93.7206 17.756C93.3346 17.982 93.0228 18.2852 92.7836 18.6663C92.5443 19.0475 92.3906 19.4868 92.3233 19.9851V19.9832Z" fill="white"/>
<path d="M102.683 26.516V9.0188H113.211V12.1563H106.14V16.1333H112.751V19.2835H106.14V26.516H102.683Z" fill="white"/>
<path d="M119.203 26.5152H115.757V8.55151H119.203V26.5152Z" fill="white"/>
<path d="M131.856 26.5152H129.05L128.882 25.1266C128.47 25.6394 127.962 26.0387 127.355 26.3228C126.749 26.6068 126.084 26.7484 125.357 26.7484C124.572 26.7484 123.872 26.5905 123.258 26.2756C122.645 25.9606 122.162 25.5259 121.811 24.9696C121.459 24.4141 121.283 23.7816 121.283 23.0745C121.283 22.3285 121.474 21.6705 121.855 21.1033C122.237 20.5361 122.763 20.0904 123.433 19.7673C124.102 19.4451 124.864 19.2836 125.717 19.2836C126.218 19.2836 126.721 19.3417 127.227 19.4588C127.733 19.5758 128.201 19.7392 128.635 19.9489V19.6457C128.635 19.1792 128.511 18.7772 128.26 18.4386C128.008 18.101 127.665 17.8378 127.227 17.6509C126.789 17.4639 126.3 17.3704 125.762 17.3704C125.224 17.3704 124.736 17.4557 124.231 17.6273C123.725 17.7988 123.26 18.0547 122.834 18.3978L121.958 15.843C122.714 15.4382 123.479 15.1332 124.253 14.9272C125.028 14.7212 125.777 14.6187 126.504 14.6187C127.595 14.6187 128.543 14.8428 129.343 15.2894C130.144 15.7368 130.763 16.3666 131.2 17.1789C131.637 17.9912 131.857 18.9541 131.857 20.0659V26.517V26.5152H131.856ZM126.065 24.17C126.492 24.17 126.899 24.0729 127.288 23.8778C127.677 23.6835 127.994 23.4185 128.236 23.0845C128.479 22.7505 128.609 22.3803 128.624 21.9764V21.8947C128.295 21.6614 127.93 21.4799 127.53 21.352C127.129 21.224 126.724 21.1596 126.312 21.1596C125.699 21.1596 125.197 21.2993 124.808 21.5798C124.418 21.8602 124.225 22.2214 124.225 22.6652C124.225 22.9529 124.305 23.2116 124.466 23.4412C124.626 23.6708 124.845 23.8496 125.122 23.9776C125.399 24.1056 125.714 24.17 126.065 24.17Z" fill="white"/>
<path d="M152.541 26.517H149.32V20.6613C149.32 19.6893 149.136 18.9387 148.77 18.4096C148.403 17.8805 147.883 17.6164 147.21 17.6164C146.537 17.6164 145.985 17.8841 145.599 18.4214C145.214 18.9578 145.021 19.7047 145.021 20.6613V26.517H141.799V20.6613C141.799 19.6893 141.616 18.9387 141.25 18.4096C140.883 17.8805 140.359 17.6164 139.678 17.6164C138.997 17.6164 138.463 17.8841 138.079 18.4214C137.693 18.9578 137.501 19.7047 137.501 20.6613V26.517H134.28V14.8519H136.85L136.962 16.7769C137.336 16.069 137.84 15.5335 138.472 15.1677C139.104 14.802 139.839 14.6196 140.677 14.6196C141.515 14.6196 142.308 14.8102 142.945 15.1904C143.581 15.5716 144.071 16.1198 144.416 16.835C144.798 16.1116 145.304 15.5616 145.937 15.1841C146.569 14.8074 147.319 14.6187 148.187 14.6187C149.557 14.6187 150.624 15.0715 151.392 15.9773C152.159 16.8831 152.543 18.1491 152.543 19.7737V26.5161H152.541V26.517Z" fill="white"/>
<path d="M165.294 25.2091C163.902 26.2355 162.379 26.7483 160.726 26.7483C159.499 26.7483 158.397 26.4742 157.42 25.9251C156.444 25.377 155.673 24.6328 155.108 23.6907C154.544 22.7504 154.261 21.6886 154.261 20.506C154.261 19.3234 154.517 18.3714 155.029 17.4847C155.542 16.598 156.24 15.8982 157.122 15.3845C158.005 14.8718 159.008 14.614 160.13 14.614C161.252 14.614 162.31 14.8963 163.193 15.4599C164.076 16.0235 164.765 16.8094 165.259 17.8169C165.753 18.8243 166 19.9887 166 21.3101V21.6831H157.728C157.863 22.1415 158.082 22.5444 158.385 22.8902C158.689 23.2369 159.07 23.5101 159.53 23.7134C159.99 23.9158 160.516 24.0165 161.107 24.0165C162.251 24.0165 163.318 23.6317 164.305 22.8621L165.293 25.2063H165.294V25.2091ZM157.584 19.9832H163.027C162.967 19.4777 162.815 19.0321 162.572 18.6473C162.33 18.2625 162.011 17.9612 161.619 17.7433C161.226 17.5255 160.786 17.4175 160.299 17.4175C159.813 17.4175 159.366 17.5301 158.98 17.756C158.595 17.982 158.283 18.2852 158.043 18.6663C157.804 19.0475 157.651 19.4868 157.584 19.9851V19.9832Z" fill="white"/>
<path d="M31.6861 10.6957C31.6877 13.5474 31.2228 15.7131 30.4441 16.5017C30.2863 16.6631 30.1145 16.7675 29.931 16.808C29.5508 16.8926 29.1216 16.7097 28.8575 16.4482C28.8111 16.4025 28.7687 16.3542 28.7322 16.3024C28.6965 16.2541 27.2046 14.8805 28.9455 12.1194C33.7716 4.4669 27.5765 0.528918 26.4516 0C27.3158 0.769649 28.2839 3.84048 27.5002 5.95356C26.9713 7.51616 26.0971 8.93552 25.1565 10.0581C24.934 10.3238 24.7065 10.5732 24.4798 10.8044C23.2553 12.046 22.0307 12.7398 21.3848 12.5646C21.3284 12.5491 21.2761 12.5266 21.2296 12.4982C20.7671 12.216 20.8145 11.3023 20.8477 10.6284C20.8493 10.5853 20.8518 10.5438 20.856 10.5024C21.0959 7.28578 24.1951 5.44018 24.5463 5.23741C23.56 5.69299 21.8024 6.66972 20.2657 8.61541C19.6787 9.35918 19.2188 10.1228 18.8593 10.8752C18.8419 10.9106 18.8253 10.9459 18.8103 10.9813C17.6107 13.5422 17.5534 15.9254 17.5443 16.7416V16.9168C17.5409 16.9107 17.5368 16.9055 17.5343 16.8978C16.7697 15.4689 15.8938 14.1298 14.7655 12.9986C12.3737 10.6042 9.52441 9.7975 6.32893 10.5387C3.76939 11.1332 1.90556 12.7993 0.754889 15.3231C-0.0977383 17.1911 -0.18159 19.1549 0.270876 21.1308C0.857005 23.6891 2.15047 25.7988 3.95286 27.5503C5.83827 29.3821 8.03667 30.6332 10.4783 31.4271C12.6435 32.1303 14.851 32.6126 17.1051 32.8758C20.6468 33.2891 24.9182 32.5513 24.9838 32.5401C24.6998 32.4633 21.4047 33.1967 16.6053 31.4296C9.70208 28.8869 8.41027 23.8807 9.74525 21.0592C11.4447 17.4672 17.3766 17.4957 18.8178 22.5778C19.1673 21.3664 19.8381 20.3267 20.7165 19.5294C20.8028 19.438 20.8925 19.3499 20.9838 19.2654C21.5168 18.7684 22.1187 18.368 22.7704 18.0893C23.4155 17.8124 24.1112 17.6536 24.836 17.6364C24.9979 17.6329 25.1573 17.6346 25.3167 17.6458C26.0132 17.6881 26.6832 17.8624 27.3067 18.1463C27.5707 18.2662 27.8256 18.406 28.0713 18.5639C30.0555 19.8374 31.4304 22.2965 31.496 25.1534C31.5151 25.9981 31.4187 26.8143 31.222 27.5805C31.1307 27.9386 31.0186 28.2837 30.8849 28.6177C30.8027 28.8256 30.7122 29.0275 30.6143 29.2251C31.7791 27.5322 32.7479 25.5425 33.2834 23.4312C34.772 17.5596 32.552 12.4628 31.6844 10.7017V10.6966L31.6861 10.6957Z" fill="#FF206E"/>
</g>
<defs>
<clipPath id="clip0_159_1182">
<rect width="166" height="33" fill="white"/>
</clipPath>
</defs>
</svg>
