<?xml version="1.0" encoding="utf-8"?>
<!-- Uploaded to: SVG Repo, www.svgrepo.com, Generator: SVG Repo Mixer Tools -->
<!DOCTYPE svg PUBLIC "-//W3C//DTD SVG 1.1//EN" "http://www.w3.org/Graphics/SVG/1.1/DTD/svg11.dtd">
<svg fill="#000000" width="800px" height="800px" viewBox="0 0 1000 1000" version="1.1" xmlns="http://www.w3.org/2000/svg" xmlns:xlink="http://www.w3.org/1999/xlink"  enable-background="new 0 0 1000 1000" xml:space="preserve">

<g>
<g transform="translate(0.000000,511.000000) scale(0.100000,-0.100000)">
<path d="M939.4,4545.5L476.9,4083l474.7-474.7l472.7-472.7l122.2,122.2l122.2,122.2L1404,3644.9l-264.9,264.9h1238.7h1236.7V4083v173.2H2388H1159.5l254.7,254.7l254.7,254.7l-122.2,122.2c-67.2,67.2-126.3,122.3-132.4,122.3S1194.1,4802.2,939.4,4545.5z"/>
<path d="M8457.5,4893.9l-116.1-118.2l258.8-258.8l260.8-260.8H7622.2H6385.5V4083v-173.2h1236.7h1238.7l-264.9-264.9l-264.9-264.9l122.3-122.2l122.2-122.2l472.7,472.7l474.7,474.7l-462.5,462.5C8805.9,4802.2,8592,5010,8585.9,5010S8522.7,4957,8457.5,4893.9z"/>
<path d="M4643.5,4046.3l-326-189.5l-10.2-421.7l-10.2-421.8l-161,91.7c-87.6,50.9-169.1,91.7-183.4,91.7c-12.2-2-169.1-87.6-348.4-191.5l-326-191.5l-10.2-1819.4L3258-827.2L3184.7-705c-38.7,67.2-156.9,271-262.8,454.3L2732.4,79.4H2331h-403.4l-183.4-319.9c-101.9-177.3-191.5-336.2-197.6-354.5c-8.1-22.4,108-244.5,336.2-635.7l348.4-603.1l101.9-495.1l101.9-495.1l588.8-590.8l590.9-590.9v-393.2V-4790h173.2h173.2v472.7v474.7l-609.2,611.2l-607.2,611.2l-87.6,438c-48.9,240.4-103.9,470.6-124.3,509.4c-18.3,38.7-163,293.4-319.9,566.4l-287.3,495.1l101.9,173.2l101.9,171.2h199.7h201.7l535.8-931.1l537.9-931.1l6.1,2373.6l4.1,2371.6l173.2,97.8l173.2,97.8l167.1-97.8l169.1-99.8l6.1-1440.4l4.1-1440.5h173.2h173.2v1962v1960l173.2,97.8l173.2,99.8l173.2-97.8l173.2-97.8v-1962v-1962h173.2h173.2l4.1,1440.5l6.1,1440.4l171.2,97.8l169.1,97.8l171.1-95.8l171.2-97.8V1175.6V-266.9h173.2h173.2v171.2V75.4l161,93.7c87.6,50.9,169.1,95.8,179.3,97.8c10.2,4.1,97.8-38.7,195.6-91.7l175.2-97.8V-965.8v-1043.2l-356.5-949.4l-354.5-951.5v-440.1V-4790H6905h173.2v407.5v407.5l356.6,951.5l356.5,949.4v1165.4c0,908.7-6.1,1171.5-24.5,1187.8c-34.6,26.5-666.2,391.2-680.5,391.2c-6.1,0-81.5-40.8-169.1-91.7c-87.6-50.9-165-91.7-171.1-91.7c-8.2,0-16.3,523.6-18.3,1165.4l-6.1,1165.4l-326,189.5c-179.3,103.9-336.2,187.4-350.4,189.5c-14.3,0-95.8-40.7-181.3-91.7c-83.6-50.9-156.9-91.7-163-91.7c-4.1,0-10.2,189.5-12.2,421.8l-6.1,421.7l-326,189.5c-179.3,103.9-340.2,189.5-356.5,189.5C4983.7,4233.7,4822.7,4150.2,4643.5,4046.3z"/>
</g>
</g>
</svg>