<svg width="92" height="22" viewBox="0 0 92 22" fill="none" xmlns="http://www.w3.org/2000/svg">
<g id="Trustpilot">
<path id="Vector" d="M24.4175 7.72632H33.6237V9.39885H29.9988V18.8272H28.012V9.39885H24.4023L24.4175 7.72632ZM33.2293 10.7902H34.928V12.3443H34.9583C35.019 12.1223 35.1252 11.915 35.2768 11.7078C35.4285 11.5006 35.6105 11.3082 35.838 11.1454C36.0503 10.9678 36.293 10.8346 36.566 10.7309C36.8238 10.6273 37.0968 10.5681 37.3698 10.5681C37.5822 10.5681 37.7338 10.5829 37.8097 10.5829C37.8855 10.5977 37.9765 10.6125 38.0523 10.6125V12.3147C37.931 12.2851 37.7945 12.2703 37.658 12.2555C37.5215 12.2407 37.4002 12.2259 37.2637 12.2259C36.9603 12.2259 36.6722 12.2851 36.3992 12.4035C36.1262 12.5219 35.8987 12.6995 35.6863 12.9215C35.4892 13.1583 35.3223 13.4396 35.201 13.78C35.0797 14.1204 35.019 14.52 35.019 14.9641V18.7828H33.199L33.2293 10.7902ZM46.394 18.8272H44.6043V17.7023H44.574C44.3465 18.1167 44.0128 18.4275 43.573 18.6792C43.1332 18.9308 42.6782 19.0492 42.2232 19.0492C41.1463 19.0492 40.3577 18.7976 39.8723 18.2647C39.387 17.7467 39.1443 16.9474 39.1443 15.8965V10.7902H40.9643V15.7189C40.9643 16.4294 41.1008 16.9326 41.389 17.2138C41.662 17.5099 42.0563 17.6579 42.5568 17.6579C42.936 17.6579 43.2545 17.5987 43.5123 17.4803C43.7702 17.3619 43.9825 17.2139 44.1342 17.0214C44.301 16.829 44.4072 16.5922 44.483 16.3258C44.5588 16.0594 44.5892 15.7633 44.5892 15.4525V10.7902H46.4092V18.8272H46.394ZM49.488 16.2518C49.5487 16.7698 49.7458 17.125 50.0947 17.3471C50.4435 17.5543 50.8682 17.6579 51.3535 17.6579C51.5203 17.6579 51.7175 17.6431 51.9298 17.6135C52.1422 17.5839 52.3545 17.5395 52.5365 17.4655C52.7337 17.3915 52.8853 17.2879 53.0067 17.1398C53.128 16.9918 53.1887 16.8142 53.1735 16.5922C53.1583 16.3702 53.0825 16.1778 52.9157 16.0298C52.7488 15.8817 52.5517 15.7781 52.309 15.6745C52.0663 15.5857 51.7782 15.5117 51.4597 15.4525C51.1412 15.3933 50.8227 15.3193 50.489 15.2453C50.1553 15.1713 49.8217 15.0825 49.5032 14.9789C49.1847 14.8753 48.9117 14.7421 48.6538 14.5496C48.4112 14.372 48.1988 14.15 48.0623 13.8688C47.9107 13.5876 47.8348 13.2619 47.8348 12.8475C47.8348 12.4035 47.941 12.0482 48.1685 11.7522C48.3808 11.4562 48.669 11.2194 49.0027 11.0418C49.3363 10.8642 49.7155 10.7309 50.125 10.6569C50.5345 10.5829 50.9288 10.5533 51.2928 10.5533C51.7175 10.5533 52.127 10.5977 52.5062 10.6865C52.8853 10.7754 53.2493 10.9086 53.5527 11.1158C53.8712 11.3082 54.129 11.5746 54.3262 11.8854C54.5385 12.1963 54.6598 12.5811 54.7205 13.0251H52.8247C52.7337 12.5959 52.5365 12.3147 52.2332 12.1667C51.9147 12.0187 51.5658 11.9446 51.1563 11.9446C51.035 11.9446 50.8682 11.9594 50.7013 11.9742C50.5193 12.0038 50.3677 12.0335 50.2008 12.0927C50.0492 12.1519 49.9127 12.2407 49.8065 12.3443C49.7003 12.4479 49.6397 12.5959 49.6397 12.7735C49.6397 12.9955 49.7155 13.1583 49.8672 13.2915C50.0188 13.4248 50.216 13.5284 50.4738 13.632C50.7165 13.7208 51.0047 13.7948 51.3232 13.854C51.6417 13.9132 51.9753 13.9872 52.309 14.0612C52.6427 14.1352 52.9612 14.224 53.2797 14.3276C53.5982 14.4312 53.8863 14.5644 54.129 14.7569C54.3717 14.9345 54.584 15.1565 54.7357 15.4229C54.8873 15.6893 54.9632 16.0298 54.9632 16.4146C54.9632 16.8882 54.857 17.2879 54.6295 17.6283C54.402 17.9539 54.1138 18.2351 53.765 18.4423C53.4162 18.6496 53.0067 18.7976 52.582 18.9012C52.1422 18.99 51.7175 19.0492 51.2928 19.0492C50.7772 19.0492 50.2918 18.99 49.852 18.8716C49.4122 18.7532 49.0178 18.5756 48.6993 18.3535C48.3808 18.1167 48.123 17.8355 47.941 17.4803C47.759 17.1398 47.6528 16.7254 47.6377 16.237H49.4728V16.2518H49.488ZM55.4788 10.7902H56.859V8.36277H58.679V10.7754H60.317V12.0927H58.679V16.385C58.679 16.5774 58.6942 16.7254 58.7093 16.8734C58.7245 17.0066 58.77 17.125 58.8155 17.2138C58.8762 17.3027 58.9672 17.3767 59.0733 17.4211C59.1947 17.4655 59.3463 17.4951 59.5587 17.4951C59.68 17.4951 59.8165 17.4951 59.9378 17.4803C60.0592 17.4655 60.1957 17.4507 60.317 17.4211V18.7976C60.1198 18.8272 59.9227 18.842 59.7255 18.8568C59.5283 18.8864 59.3463 18.8864 59.134 18.8864C58.6487 18.8864 58.2695 18.842 57.9813 18.7532C57.6932 18.6644 57.4657 18.5312 57.2988 18.3683C57.132 18.1907 57.0258 17.9835 56.9652 17.7319C56.9045 17.4803 56.8742 17.1694 56.859 16.8438V12.1075H55.4788V10.7606V10.7902ZM61.591 10.7902H63.3048V11.8854H63.3352C63.593 11.4118 63.9418 11.0862 64.3968 10.879C64.8518 10.6717 65.3372 10.5681 65.8832 10.5681C66.5353 10.5681 67.0965 10.6717 67.5818 10.9086C68.0672 11.1306 68.4615 11.4266 68.78 11.8262C69.0985 12.2111 69.3412 12.6699 69.4928 13.1879C69.6445 13.706 69.7355 14.2684 69.7355 14.8457C69.7355 15.3933 69.6597 15.9113 69.5232 16.4146C69.3715 16.9178 69.1592 17.3767 68.871 17.7615C68.5828 18.1463 68.2188 18.4571 67.7638 18.694C67.3088 18.9308 66.7932 19.0492 66.1865 19.0492C65.9287 19.0492 65.6557 19.0196 65.3978 18.9752C65.14 18.9308 64.8822 18.8568 64.6395 18.7532C64.3968 18.6496 64.1693 18.5164 63.9722 18.3535C63.7598 18.1907 63.593 17.9983 63.4565 17.7911H63.4262V21.8022H61.6062V10.7902H61.591ZM67.9458 14.8161C67.9458 14.4608 67.9003 14.1056 67.7942 13.7652C67.7032 13.4248 67.5515 13.1287 67.3543 12.8623C67.1572 12.5959 66.9145 12.3887 66.6415 12.2259C66.3533 12.0631 66.0197 11.989 65.6557 11.989C64.8973 11.989 64.321 12.2407 63.9267 12.7587C63.5475 13.2767 63.3503 13.9724 63.3503 14.8309C63.3503 15.2453 63.3958 15.6153 63.502 15.9558C63.6082 16.2962 63.7447 16.5922 63.957 16.8438C64.1542 17.0954 64.3968 17.2879 64.685 17.4359C64.9732 17.5839 65.2917 17.6579 65.6708 17.6579C66.0955 17.6579 66.4292 17.5691 66.7173 17.4063C67.0055 17.2435 67.233 17.0214 67.4302 16.7698C67.6122 16.5034 67.7487 16.2074 67.8245 15.8669C67.9003 15.5117 67.9458 15.1713 67.9458 14.8161ZM71.146 7.72632H72.966V9.39885H71.146V7.72632ZM71.146 10.7902H72.966V18.8272H71.146V10.7902ZM74.5888 7.72632H76.4088V18.8272H74.5888V7.72632ZM81.9598 19.0492C81.3077 19.0492 80.7162 18.9456 80.2005 18.7236C79.6848 18.5015 79.2602 18.2203 78.8962 17.8503C78.5473 17.4803 78.2743 17.0214 78.0923 16.5034C77.9103 15.9854 77.8042 15.4081 77.8042 14.8013C77.8042 14.1944 77.8952 13.632 78.0923 13.1139C78.2743 12.5959 78.5473 12.1519 78.8962 11.767C79.245 11.397 79.6848 11.101 80.2005 10.8938C80.7162 10.6865 81.3077 10.5681 81.9598 10.5681C82.612 10.5681 83.2035 10.6717 83.7192 10.8938C84.2348 11.101 84.6595 11.397 85.0235 11.767C85.3723 12.1371 85.6453 12.5959 85.8273 13.1139C86.0093 13.632 86.1155 14.1944 86.1155 14.8013C86.1155 15.4229 86.0245 15.9854 85.8273 16.5034C85.6302 17.0214 85.3723 17.4655 85.0235 17.8503C84.6747 18.2203 84.2348 18.5164 83.7192 18.7236C83.2035 18.9308 82.6272 19.0492 81.9598 19.0492ZM81.9598 17.6431C82.3542 17.6431 82.7182 17.5543 83.0063 17.3915C83.3097 17.2287 83.5372 17.0066 83.7343 16.7402C83.9315 16.4738 84.068 16.163 84.159 15.8373C84.25 15.4969 84.2955 15.1565 84.2955 14.8013C84.2955 14.4608 84.25 14.1204 84.159 13.78C84.068 13.4396 83.9315 13.1435 83.7343 12.8771C83.5372 12.6107 83.2945 12.4035 83.0063 12.2407C82.703 12.0779 82.3542 11.989 81.9598 11.989C81.5655 11.989 81.2015 12.0779 80.9133 12.2407C80.61 12.4035 80.3825 12.6255 80.1853 12.8771C79.9882 13.1435 79.8517 13.4396 79.7607 13.78C79.6697 14.1204 79.6242 14.4608 79.6242 14.8013C79.6242 15.1565 79.6697 15.4969 79.7607 15.8373C79.8517 16.1778 79.9882 16.4738 80.1853 16.7402C80.3825 17.0066 80.6252 17.2287 80.9133 17.3915C81.2167 17.5691 81.5655 17.6431 81.9598 17.6431ZM86.6615 10.7902H88.0417V8.36277H89.8617V10.7754H91.4997V12.0927H89.8617V16.385C89.8617 16.5774 89.8768 16.7254 89.892 16.8734C89.9072 17.0066 89.9527 17.125 89.9982 17.2138C90.0588 17.3027 90.1498 17.3767 90.256 17.4211C90.3773 17.4655 90.529 17.4951 90.7413 17.4951C90.8627 17.4951 90.9992 17.4951 91.1205 17.4803C91.2418 17.4655 91.3783 17.4507 91.4997 17.4211V18.7976C91.3025 18.8272 91.1053 18.842 90.9082 18.8568C90.711 18.8864 90.529 18.8864 90.3167 18.8864C89.8313 18.8864 89.4522 18.842 89.164 18.7532C88.8758 18.6644 88.6483 18.5312 88.4815 18.3683C88.3147 18.1907 88.2085 17.9835 88.1478 17.7319C88.0872 17.4803 88.0568 17.1694 88.0417 16.8438V12.1075H86.6615V10.7606V10.7902Z" fill="white"/>
<path id="Vector_2" d="M22.2945 7.7262H13.968L11.4048 0L8.8265 7.7262L0.5 7.7114L7.234 12.4922L4.65567 20.2184L11.3897 15.4376L18.1237 20.2184L15.5605 12.4922L22.2945 7.7262Z" fill="#00B67A"/>
<path id="Vector_3" d="M16.1363 14.2387L15.56 12.4922L11.4043 15.4376L16.1363 14.2387Z" fill="#005128"/>
</g>
</svg>
