<svg width="191" height="55" viewBox="0 0 191 55" fill="none" xmlns="http://www.w3.org/2000/svg">
<path d="M49.4993 4.58331V13.25L52.9993 15.3889L52.0827 11.3889L55.166 8.7222L51.1105 8.36109L49.4993 4.58331ZM44.3049 17.6922L45.6827 11.7889L41.1016 7.81998L47.136 7.29776L49.4993 1.72998L51.8627 7.29665L57.896 7.81887L53.316 11.7878L54.6938 17.6911L49.4993 14.5578L44.3049 17.6922Z" fill="#FFDE33"/>
<path d="M51.9988 7.99989L49.4987 4.44434L47.832 13.3332L53.9431 16.111L52.2765 11.6666L55.9988 8.49989L51.9988 7.99989Z" fill="#FFDE33"/>
<path d="M72.4993 4.58331V13.25L75.9993 15.3889L75.0827 11.3889L78.166 8.7222L74.1105 8.36109L72.4993 4.58331ZM67.3049 17.6922L68.6827 11.7889L64.1016 7.81998L70.136 7.29776L72.4993 1.72998L74.8627 7.29665L80.896 7.81887L76.316 11.7878L77.6938 17.6911L72.4993 14.5578L67.3049 17.6922Z" fill="#FFDE33"/>
<path d="M74.9988 7.99989L72.4987 4.44434L70.832 13.3332L76.9431 16.111L75.2765 11.6666L78.9988 8.49989L74.9988 7.99989Z" fill="#FFDE33"/>
<path d="M95.4993 4.58331V13.25L98.9993 15.3889L98.0827 11.3889L101.166 8.7222L97.1105 8.36109L95.4993 4.58331ZM90.3049 17.6922L91.6827 11.7889L87.1016 7.81998L93.136 7.29776L95.4993 1.72998L97.8627 7.29665L103.896 7.81887L99.316 11.7878L100.694 17.6911L95.4993 14.5578L90.3049 17.6922Z" fill="#FFDE33"/>
<path d="M97.9988 7.99989L95.4987 4.44434L93.832 13.3332L99.9431 16.111L98.2765 11.6666L101.999 8.49989L97.9988 7.99989Z" fill="#FFDE33"/>
<path d="M118.499 4.58331V13.25L121.999 15.3889L121.083 11.3889L124.166 8.7222L120.11 8.36109L118.499 4.58331ZM113.305 17.6922L114.683 11.7889L110.102 7.81998L116.136 7.29776L118.499 1.72998L120.863 7.29665L126.896 7.81887L122.316 11.7878L123.694 17.6911L118.499 14.5578L113.305 17.6922Z" fill="#FFDE33"/>
<path d="M120.999 7.99989L118.499 4.44434L116.832 13.3332L122.943 16.111L121.276 11.6666L124.999 8.49989L120.999 7.99989Z" fill="#FFDE33"/>
<path d="M141.499 4.58331V13.25L144.999 15.3889L144.083 11.3889L147.166 8.7222L143.11 8.36109L141.499 4.58331ZM136.305 17.6922L137.683 11.7889L133.102 7.81998L139.136 7.29776L141.499 1.72998L143.863 7.29665L149.896 7.81887L145.316 11.7878L146.694 17.6911L141.499 14.5578L136.305 17.6922Z" fill="#FFDE33"/>
<path d="M143.721 7.77767L141.499 4.44434L139.832 13.3332L145.943 16.111L144.276 11.6666L148.499 8.49988L143.721 7.77767Z" fill="#FFDE33"/>
<path d="M13.3162 46.9512C12.6912 46.9512 12.1283 46.827 11.6276 46.5784C11.1269 46.3298 10.7256 45.9889 10.4238 45.5556C10.1219 45.1224 9.95681 44.6288 9.9284 44.0748H11.2068C11.2565 44.5684 11.4802 44.9768 11.878 45.3C12.2793 45.6196 12.7587 45.7794 13.3162 45.7794C13.7636 45.7794 14.1614 45.6746 14.5094 45.4651C14.8609 45.2556 15.1361 44.9679 15.335 44.6022C15.5374 44.2328 15.6386 43.8156 15.6386 43.3504C15.6386 42.8745 15.5339 42.4502 15.3244 42.0773C15.1184 41.7009 14.8343 41.4044 14.4721 41.1877C14.1099 40.9711 13.6962 40.861 13.231 40.8575C12.8972 40.8539 12.5545 40.9054 12.2029 41.012C11.8513 41.1149 11.5619 41.2481 11.3347 41.4115L10.0989 41.2623L10.7594 35.893H16.427V37.0649H11.8673L11.4838 40.2822H11.5477C11.7714 40.1047 12.052 39.9573 12.3893 39.8401C12.7267 39.7229 13.0783 39.6643 13.444 39.6643C14.1116 39.6643 14.7065 39.8241 15.2285 40.1437C15.754 40.4598 16.166 40.893 16.4643 41.4434C16.7661 41.9939 16.917 42.6224 16.917 43.3291C16.917 44.0251 16.7608 44.6466 16.4483 45.1934C16.1393 45.7368 15.7132 46.1664 15.1699 46.4825C14.6266 46.795 14.0087 46.9512 13.3162 46.9512ZM29.0686 40.4527L27.9393 40.7723C27.8683 40.5841 27.7635 40.4012 27.625 40.2236C27.4901 40.0425 27.3054 39.8934 27.0711 39.7762C26.8367 39.659 26.5366 39.6004 26.1709 39.6004C25.6701 39.6004 25.2529 39.7158 24.9191 39.9466C24.5888 40.1739 24.4237 40.4633 24.4237 40.8149C24.4237 41.1274 24.5373 41.3742 24.7646 41.5553C24.9919 41.7364 25.347 41.8873 25.8299 42.0081L27.0444 42.3064C27.776 42.4839 28.3211 42.7556 28.6797 43.1213C29.0384 43.4836 29.2177 43.9505 29.2177 44.5223C29.2177 44.991 29.0828 45.41 28.8129 45.7794C28.5466 46.1487 28.1737 46.4399 27.6943 46.6529C27.2149 46.866 26.6574 46.9725 26.0217 46.9725C25.1872 46.9725 24.4965 46.7914 23.9496 46.4292C23.4027 46.067 23.0565 45.5379 22.9109 44.8419L24.1041 44.5436C24.2177 44.9839 24.4326 45.3142 24.7486 45.5343C25.0682 45.7545 25.4855 45.8646 26.0004 45.8646C26.5863 45.8646 27.0515 45.7403 27.396 45.4917C27.744 45.2396 27.918 44.9377 27.918 44.5862C27.918 44.3021 27.8186 44.0642 27.6197 43.8724C27.4209 43.6771 27.1155 43.5315 26.7035 43.4356L25.3399 43.116C24.5906 42.9385 24.0402 42.6632 23.6886 42.2904C23.3406 41.914 23.1666 41.4434 23.1666 40.8788C23.1666 40.4172 23.2962 40.0088 23.5554 39.6537C23.8182 39.2985 24.1751 39.0198 24.6261 38.8174C25.0807 38.6149 25.5956 38.5137 26.1709 38.5137C26.9805 38.5137 27.6162 38.6913 28.0778 39.0464C28.543 39.4015 28.8733 39.8703 29.0686 40.4527ZM34.6683 38.6203V39.6856H30.4282V38.6203H34.6683ZM31.664 36.66H32.9211V44.4583C32.9211 44.8135 32.9726 45.0798 33.0756 45.2573C33.1821 45.4314 33.3171 45.5485 33.4804 45.6089C33.6473 45.6657 33.8231 45.6941 34.0078 45.6941C34.1463 45.6941 34.2599 45.687 34.3487 45.6728C34.4375 45.6551 34.5085 45.6409 34.5617 45.6302L34.8174 46.7595C34.7322 46.7914 34.6132 46.8234 34.4605 46.8554C34.3078 46.8909 34.1143 46.9086 33.8799 46.9086C33.5248 46.9086 33.1768 46.8323 32.8359 46.6796C32.4985 46.5269 32.218 46.2943 31.9943 45.9818C31.7741 45.6693 31.664 45.2751 31.664 44.7993V36.66ZM38.9669 46.9939C38.4485 46.9939 37.9779 46.8962 37.5554 46.7009C37.1328 46.502 36.7972 46.2162 36.5486 45.8433C36.3 45.4669 36.1757 45.0123 36.1757 44.4797C36.1757 44.0109 36.2681 43.6309 36.4527 43.3397C36.6374 43.045 36.8842 42.8142 37.1931 42.6473C37.5021 42.4804 37.843 42.3561 38.2159 42.2744C38.5923 42.1892 38.9705 42.1217 39.3505 42.072C39.8476 42.0081 40.2507 41.9601 40.5596 41.9282C40.8721 41.8926 41.0994 41.8341 41.2414 41.7524C41.387 41.6707 41.4598 41.5287 41.4598 41.3262V41.2836C41.4598 40.7581 41.316 40.3497 41.0284 40.0585C40.7443 39.7673 40.3128 39.6217 39.734 39.6217C39.1338 39.6217 38.6633 39.7531 38.3224 40.0159C37.9815 40.2787 37.7418 40.5592 37.6033 40.8575L36.4101 40.4314C36.6232 39.9342 36.9073 39.5471 37.2624 39.2701C37.621 38.9896 38.0117 38.7943 38.4343 38.6842C38.8604 38.5706 39.2794 38.5137 39.6914 38.5137C39.9541 38.5137 40.256 38.5457 40.5969 38.6096C40.9414 38.67 41.2734 38.7961 41.593 38.9878C41.9161 39.1796 42.1843 39.469 42.3973 39.8561C42.6104 40.2431 42.7169 40.7616 42.7169 41.4115V46.8021H41.4598V45.6941H41.3959C41.3107 45.8717 41.1686 46.0617 40.9698 46.2641C40.7709 46.4665 40.5063 46.6387 40.1761 46.7808C39.8458 46.9228 39.4428 46.9939 38.9669 46.9939ZM39.1587 45.8646C39.6559 45.8646 40.0749 45.7669 40.4158 45.5716C40.7603 45.3763 41.0195 45.1242 41.1935 44.8152C41.371 44.5063 41.4598 44.1814 41.4598 43.8404V42.6899C41.4066 42.7538 41.2894 42.8124 41.1083 42.8657C40.9307 42.9154 40.7247 42.9598 40.4904 42.9988C40.2595 43.0343 40.034 43.0663 39.8139 43.0947C39.5973 43.1196 39.4215 43.1409 39.2865 43.1586C38.9598 43.2012 38.6544 43.2705 38.3703 43.3664C38.0898 43.4587 37.8625 43.599 37.6885 43.7872C37.5181 43.9718 37.4328 44.224 37.4328 44.5436C37.4328 44.9804 37.5944 45.3106 37.9176 45.5343C38.2443 45.7545 38.658 45.8646 39.1587 45.8646ZM45.0114 46.8021V38.6203H46.2259V39.8561H46.3111C46.4603 39.4512 46.7302 39.1228 47.1208 38.8706C47.5114 38.6185 47.9517 38.4924 48.4418 38.4924C48.5341 38.4924 48.6495 38.4942 48.788 38.4978C48.9265 38.5013 49.0313 38.5066 49.1023 38.5137V39.7922C49.0597 39.7815 48.962 39.7655 48.8093 39.7442C48.6602 39.7194 48.5022 39.7069 48.3353 39.7069C47.9375 39.7069 47.5824 39.7904 47.2699 39.9573C46.961 40.1206 46.716 40.3479 46.5348 40.6391C46.3573 40.9267 46.2685 41.2552 46.2685 41.6245V46.8021H45.0114ZM56.3879 40.4527L55.2587 40.7723C55.1876 40.5841 55.0829 40.4012 54.9444 40.2236C54.8094 40.0425 54.6248 39.8934 54.3904 39.7762C54.156 39.659 53.856 39.6004 53.4902 39.6004C52.9895 39.6004 52.5722 39.7158 52.2384 39.9466C51.9082 40.1739 51.743 40.4633 51.743 40.8149C51.743 41.1274 51.8567 41.3742 52.0839 41.5553C52.3112 41.7364 52.6663 41.8873 53.1493 42.0081L54.3638 42.3064C55.0953 42.4839 55.6404 42.7556 55.9991 43.1213C56.3577 43.4836 56.5371 43.9505 56.5371 44.5223C56.5371 44.991 56.4021 45.41 56.1322 45.7794C55.8659 46.1487 55.493 46.4399 55.0136 46.6529C54.5342 46.866 53.9767 46.9725 53.341 46.9725C52.5065 46.9725 51.8158 46.7914 51.269 46.4292C50.7221 46.067 50.3758 45.5379 50.2302 44.8419L51.4234 44.5436C51.5371 44.9839 51.7519 45.3142 52.068 45.5343C52.3876 45.7545 52.8048 45.8646 53.3197 45.8646C53.9057 45.8646 54.3709 45.7403 54.7153 45.4917C55.0633 45.2396 55.2373 44.9377 55.2373 44.5862C55.2373 44.3021 55.1379 44.0642 54.9391 43.8724C54.7402 43.6771 54.4348 43.5315 54.0229 43.4356L52.6592 43.116C51.9099 42.9385 51.3595 42.6632 51.0079 42.2904C50.6599 41.914 50.4859 41.4434 50.4859 40.8788C50.4859 40.4172 50.6155 40.0088 50.8748 39.6537C51.1376 39.2985 51.4945 39.0198 51.9454 38.8174C52.4 38.6149 52.9149 38.5137 53.4902 38.5137C54.2998 38.5137 54.9355 38.6913 55.3972 39.0464C55.8623 39.4015 56.1926 39.8703 56.3879 40.4527ZM65.972 46.9725C65.2334 46.9725 64.5853 46.7968 64.0277 46.4452C63.4738 46.0936 63.0405 45.6018 62.728 44.9697C62.4191 44.3376 62.2646 43.599 62.2646 42.7538C62.2646 41.9015 62.4191 41.1576 62.728 40.5219C63.0405 39.8863 63.4738 39.3926 64.0277 39.0411C64.5853 38.6895 65.2334 38.5137 65.972 38.5137C66.7106 38.5137 67.3569 38.6895 67.9109 39.0411C68.4684 39.3926 68.9017 39.8863 69.2106 40.5219C69.5231 41.1576 69.6794 41.9015 69.6794 42.7538C69.6794 43.599 69.5231 44.3376 69.2106 44.9697C68.9017 45.6018 68.4684 46.0936 67.9109 46.4452C67.3569 46.7968 66.7106 46.9725 65.972 46.9725ZM65.972 45.8433C66.5331 45.8433 66.9947 45.6995 67.3569 45.4118C67.7191 45.1242 67.9873 44.746 68.1613 44.2772C68.3353 43.8085 68.4223 43.3007 68.4223 42.7538C68.4223 42.2069 68.3353 41.6973 68.1613 41.225C67.9873 40.7527 67.7191 40.371 67.3569 40.0798C66.9947 39.7886 66.5331 39.643 65.972 39.643C65.4109 39.643 64.9493 39.7886 64.587 40.0798C64.2248 40.371 63.9567 40.7527 63.7827 41.225C63.6087 41.6973 63.5217 42.2069 63.5217 42.7538C63.5217 43.3007 63.6087 43.8085 63.7827 44.2772C63.9567 44.746 64.2248 45.1242 64.587 45.4118C64.9493 45.6995 65.4109 45.8433 65.972 45.8433ZM72.8554 41.8802V46.8021H71.5983V38.6203H72.8128V39.8987H72.9193C73.1111 39.4832 73.4023 39.1494 73.7929 38.8973C74.1835 38.6416 74.6878 38.5137 75.3057 38.5137C75.8597 38.5137 76.3444 38.6274 76.7599 38.8547C77.1754 39.0784 77.4985 39.4193 77.7294 39.8774C77.9602 40.3319 78.0756 40.9072 78.0756 41.6032V46.8021H76.8185V41.6885C76.8185 41.0457 76.6516 40.545 76.3178 40.1863C75.984 39.8241 75.5259 39.643 74.9435 39.643C74.5422 39.643 74.1835 39.73 73.8675 39.904C73.555 40.078 73.3082 40.3319 73.1271 40.6657C72.946 40.9995 72.8554 41.4044 72.8554 41.8802Z" fill="white"/>
<path d="M115.418 35.7263H124.624V37.3988H120.999V46.8272H119.012V37.3988H115.402L115.418 35.7263ZM124.229 38.7902H125.928V40.3443H125.958C126.019 40.1223 126.125 39.915 126.277 39.7078C126.429 39.5006 126.611 39.3082 126.838 39.1454C127.05 38.9678 127.293 38.8346 127.566 38.7309C127.824 38.6273 128.097 38.5681 128.37 38.5681C128.582 38.5681 128.734 38.5829 128.81 38.5829C128.886 38.5977 128.977 38.6125 129.052 38.6125V40.3147C128.931 40.2851 128.795 40.2703 128.658 40.2555C128.522 40.2407 128.4 40.2259 128.264 40.2259C127.96 40.2259 127.672 40.2851 127.399 40.4035C127.126 40.5219 126.899 40.6995 126.686 40.9215C126.489 41.1583 126.322 41.4396 126.201 41.78C126.08 42.1204 126.019 42.52 126.019 42.9641V46.7828H124.199L124.229 38.7902ZM137.394 46.8272H135.604V45.7023H135.574C135.347 46.1167 135.013 46.4275 134.573 46.6792C134.133 46.9308 133.678 47.0492 133.223 47.0492C132.146 47.0492 131.358 46.7976 130.872 46.2647C130.387 45.7467 130.144 44.9474 130.144 43.8965V38.7902H131.964V43.7189C131.964 44.4294 132.101 44.9326 132.389 45.2138C132.662 45.5099 133.056 45.6579 133.557 45.6579C133.936 45.6579 134.255 45.5987 134.512 45.4803C134.77 45.3619 134.983 45.2139 135.134 45.0214C135.301 44.829 135.407 44.5922 135.483 44.3258C135.559 44.0594 135.589 43.7633 135.589 43.4525V38.7902H137.409V46.8272H137.394ZM140.488 44.2518C140.549 44.7698 140.746 45.125 141.095 45.3471C141.444 45.5543 141.868 45.6579 142.354 45.6579C142.52 45.6579 142.718 45.6431 142.93 45.6135C143.142 45.5839 143.355 45.5395 143.537 45.4655C143.734 45.3915 143.885 45.2879 144.007 45.1398C144.128 44.9918 144.189 44.8142 144.174 44.5922C144.158 44.3702 144.083 44.1778 143.916 44.0298C143.749 43.8817 143.552 43.7781 143.309 43.6745C143.066 43.5857 142.778 43.5117 142.46 43.4525C142.141 43.3933 141.823 43.3193 141.489 43.2453C141.155 43.1713 140.822 43.0825 140.503 42.9789C140.185 42.8753 139.912 42.7421 139.654 42.5496C139.411 42.372 139.199 42.15 139.062 41.8688C138.911 41.5876 138.835 41.2619 138.835 40.8475C138.835 40.4035 138.941 40.0482 139.169 39.7522C139.381 39.4562 139.669 39.2194 140.003 39.0418C140.336 38.8642 140.716 38.7309 141.125 38.6569C141.535 38.5829 141.929 38.5533 142.293 38.5533C142.718 38.5533 143.127 38.5977 143.506 38.6865C143.885 38.7754 144.249 38.9086 144.553 39.1158C144.871 39.3082 145.129 39.5746 145.326 39.8854C145.539 40.1963 145.66 40.5811 145.721 41.0251H143.825C143.734 40.5959 143.537 40.3147 143.233 40.1667C142.915 40.0187 142.566 39.9446 142.156 39.9446C142.035 39.9446 141.868 39.9594 141.701 39.9742C141.519 40.0038 141.368 40.0335 141.201 40.0927C141.049 40.1519 140.913 40.2407 140.807 40.3443C140.7 40.4479 140.64 40.5959 140.64 40.7735C140.64 40.9955 140.716 41.1583 140.867 41.2915C141.019 41.4248 141.216 41.5284 141.474 41.632C141.717 41.7208 142.005 41.7948 142.323 41.854C142.642 41.9132 142.975 41.9872 143.309 42.0612C143.643 42.1352 143.961 42.224 144.28 42.3276C144.598 42.4312 144.886 42.5644 145.129 42.7569C145.372 42.9345 145.584 43.1565 145.736 43.4229C145.887 43.6893 145.963 44.0298 145.963 44.4146C145.963 44.8882 145.857 45.2879 145.63 45.6283C145.402 45.9539 145.114 46.2351 144.765 46.4423C144.416 46.6496 144.007 46.7976 143.582 46.9012C143.142 46.99 142.718 47.0492 142.293 47.0492C141.777 47.0492 141.292 46.99 140.852 46.8716C140.412 46.7532 140.018 46.5756 139.699 46.3535C139.381 46.1167 139.123 45.8355 138.941 45.4803C138.759 45.1398 138.653 44.7254 138.638 44.237H140.473V44.2518H140.488ZM146.479 38.7902H147.859V36.3628H149.679V38.7754H151.317V40.0927H149.679V44.385C149.679 44.5774 149.694 44.7254 149.709 44.8734C149.725 45.0066 149.77 45.125 149.816 45.2138C149.876 45.3027 149.967 45.3767 150.073 45.4211C150.195 45.4655 150.346 45.4951 150.559 45.4951C150.68 45.4951 150.817 45.4951 150.938 45.4803C151.059 45.4655 151.196 45.4507 151.317 45.4211V46.7976C151.12 46.8272 150.923 46.842 150.726 46.8568C150.528 46.8864 150.346 46.8864 150.134 46.8864C149.649 46.8864 149.27 46.842 148.981 46.7532C148.693 46.6644 148.466 46.5312 148.299 46.3683C148.132 46.1907 148.026 45.9835 147.965 45.7319C147.905 45.4803 147.874 45.1694 147.859 44.8438V40.1075H146.479V38.7606V38.7902ZM152.591 38.7902H154.305V39.8854H154.335C154.593 39.4118 154.942 39.0862 155.397 38.879C155.852 38.6717 156.337 38.5681 156.883 38.5681C157.535 38.5681 158.097 38.6717 158.582 38.9086C159.067 39.1306 159.462 39.4266 159.78 39.8262C160.099 40.2111 160.341 40.6699 160.493 41.1879C160.645 41.706 160.736 42.2684 160.736 42.8457C160.736 43.3933 160.66 43.9113 160.523 44.4146C160.372 44.9178 160.159 45.3767 159.871 45.7615C159.583 46.1463 159.219 46.4571 158.764 46.694C158.309 46.9308 157.793 47.0492 157.187 47.0492C156.929 47.0492 156.656 47.0196 156.398 46.9752C156.14 46.9308 155.882 46.8568 155.64 46.7532C155.397 46.6496 155.169 46.5164 154.972 46.3535C154.76 46.1907 154.593 45.9983 154.457 45.7911H154.426V49.8022H152.606V38.7902H152.591ZM158.946 42.8161C158.946 42.4608 158.9 42.1056 158.794 41.7652C158.703 41.4248 158.552 41.1287 158.354 40.8623C158.157 40.5959 157.915 40.3887 157.642 40.2259C157.353 40.0631 157.02 39.989 156.656 39.989C155.897 39.989 155.321 40.2407 154.927 40.7587C154.548 41.2767 154.35 41.9724 154.35 42.8309C154.35 43.2453 154.396 43.6153 154.502 43.9558C154.608 44.2962 154.745 44.5922 154.957 44.8438C155.154 45.0954 155.397 45.2879 155.685 45.4359C155.973 45.5839 156.292 45.6579 156.671 45.6579C157.096 45.6579 157.429 45.5691 157.717 45.4063C158.006 45.2435 158.233 45.0214 158.43 44.7698C158.612 44.5034 158.749 44.2074 158.825 43.8669C158.9 43.5117 158.946 43.1713 158.946 42.8161ZM162.146 35.7263H163.966V37.3988H162.146V35.7263ZM162.146 38.7902H163.966V46.8272H162.146V38.7902ZM165.589 35.7263H167.409V46.8272H165.589V35.7263ZM172.96 47.0492C172.308 47.0492 171.716 46.9456 171.201 46.7236C170.685 46.5015 170.26 46.2203 169.896 45.8503C169.547 45.4803 169.274 45.0214 169.092 44.5034C168.91 43.9854 168.804 43.4081 168.804 42.8013C168.804 42.1944 168.895 41.632 169.092 41.1139C169.274 40.5959 169.547 40.1519 169.896 39.767C170.245 39.397 170.685 39.101 171.201 38.8938C171.716 38.6865 172.308 38.5681 172.96 38.5681C173.612 38.5681 174.204 38.6717 174.719 38.8938C175.235 39.101 175.659 39.397 176.023 39.767C176.372 40.1371 176.645 40.5959 176.827 41.1139C177.009 41.632 177.115 42.1944 177.115 42.8013C177.115 43.4229 177.024 43.9854 176.827 44.5034C176.63 45.0214 176.372 45.4655 176.023 45.8503C175.675 46.2203 175.235 46.5164 174.719 46.7236C174.204 46.9308 173.627 47.0492 172.96 47.0492ZM172.96 45.6431C173.354 45.6431 173.718 45.5543 174.006 45.3915C174.31 45.2287 174.537 45.0066 174.734 44.7402C174.931 44.4738 175.068 44.163 175.159 43.8373C175.25 43.4969 175.295 43.1565 175.295 42.8013C175.295 42.4608 175.25 42.1204 175.159 41.78C175.068 41.4396 174.931 41.1435 174.734 40.8771C174.537 40.6107 174.294 40.4035 174.006 40.2407C173.703 40.0779 173.354 39.989 172.96 39.989C172.565 39.989 172.201 40.0779 171.913 40.2407C171.61 40.4035 171.383 40.6255 171.185 40.8771C170.988 41.1435 170.852 41.4396 170.761 41.78C170.67 42.1204 170.624 42.4608 170.624 42.8013C170.624 43.1565 170.67 43.4969 170.761 43.8373C170.852 44.1778 170.988 44.4738 171.185 44.7402C171.383 45.0066 171.625 45.2287 171.913 45.3915C172.217 45.5691 172.565 45.6431 172.96 45.6431ZM177.661 38.7902H179.042V36.3628H180.862V38.7754H182.5V40.0927H180.862V44.385C180.862 44.5774 180.877 44.7254 180.892 44.8734C180.907 45.0066 180.953 45.125 180.998 45.2138C181.059 45.3027 181.15 45.3767 181.256 45.4211C181.377 45.4655 181.529 45.4951 181.741 45.4951C181.863 45.4951 181.999 45.4951 182.12 45.4803C182.242 45.4655 182.378 45.4507 182.5 45.4211V46.7976C182.302 46.8272 182.105 46.842 181.908 46.8568C181.711 46.8864 181.529 46.8864 181.317 46.8864C180.831 46.8864 180.452 46.842 180.164 46.7532C179.876 46.6644 179.648 46.5312 179.481 46.3683C179.315 46.1907 179.209 45.9835 179.148 45.7319C179.087 45.4803 179.057 45.1694 179.042 44.8438V40.1075H177.661V38.7606V38.7902Z" fill="white"/>
<path d="M113.294 35.7262H104.968L102.405 28L99.8265 35.7262L91.5 35.7114L98.234 40.4922L95.6557 48.2184L102.39 43.4376L109.124 48.2184L106.56 40.4922L113.294 35.7262Z" fill="#00B67A"/>
<path d="M107.136 42.2387L106.56 40.4922L102.404 43.4376L107.136 42.2387Z" fill="#005128"/>
</svg>
