<svg width="44" height="45" viewBox="0 0 44 45" fill="none" xmlns="http://www.w3.org/2000/svg">
<g id="Wallet">
<path id="Vector" d="M5.50002 12.2326V12.2326C5.50002 10.7565 5.50002 10.0184 5.75408 9.44101C6.0563 8.75418 6.60494 8.20553 7.29178 7.90332C7.86918 7.64925 8.60724 7.64925 10.0833 7.64925L35.6667 7.64925C36.1381 7.64925 36.3738 7.64925 36.5202 7.7957C36.6667 7.94215 36.6667 8.17785 36.6667 8.64925V10.8159C36.6667 13.6443 36.6667 15.0586 35.788 15.9372C34.9093 16.8159 33.4951 16.8159 30.6667 16.8159H27.5M5.50002 12.2326V12.2326C5.50002 13.7087 5.50002 14.4468 5.75408 15.0242C6.0563 15.711 6.60494 16.2596 7.29178 16.5619C7.86918 16.8159 8.60724 16.8159 10.0833 16.8159L36.5 16.8159C37.4428 16.8159 37.9142 16.8159 38.2071 17.1088C38.5 17.4017 38.5 17.8731 38.5 18.8159L38.5 24.1493M5.50002 12.2326L5.50002 34.8159C5.50002 36.7015 5.50002 37.6443 6.0858 38.2301C6.67159 38.8159 7.6144 38.8159 9.50002 38.8159L36.5 38.8159C37.4428 38.8159 37.9142 38.8159 38.2071 38.523C38.5 38.2301 38.5 37.7587 38.5 36.8159L38.5 31.4826M38.5 31.4826H29.5C28.5572 31.4826 28.0858 31.4826 27.7929 31.1897C27.5 30.8968 27.5 30.4254 27.5 29.4826V26.1493C27.5 25.2064 27.5 24.735 27.7929 24.4421C28.0858 24.1493 28.5572 24.1493 29.5 24.1493H38.5M38.5 31.4826L38.5 24.1493" stroke="white" stroke-width="2"/>
</g>
</svg>
